<?xml version="1.0" encoding="UTF-8" standalone="yes"?>
<svg width="431" height="431" viewBox="0 0 431 431" fill="none" version="1.2" baseProfile="tiny-ps" xmlns="http://www.w3.org/2000/svg">
  <title>bimi-svg-tiny-12-ps</title>
  <path d="M392.391 141.93C394.688 142.635 394.688 145.877 392.391 146.582L383.044 149.427C382.265 149.667 381.651 150.273 381.427 151.044L378.574 160.399C377.878 162.704 374.618 162.704 373.922 160.399L371.077 151.044C370.837 150.273 370.231 149.667 369.46 149.427L360.105 146.582C357.808 145.877 357.808 142.635 360.105 141.93L369.46 139.085C370.231 138.845 370.837 138.239 371.077 137.468L373.922 128.113C374.618 125.816 377.869 125.816 378.574 128.113L381.427 137.468C381.651 138.239 382.265 138.845 383.044 139.085L392.391 141.93Z" fill="#2E2E2E"/>
  <path d="M369.111 87.0619C373.042 88.2644 373.042 93.8292 369.111 95.0317L353.089 99.9081C351.77 100.306 350.733 101.343 350.327 102.678L345.451 118.692C344.248 122.623 338.683 122.623 337.489 118.692L332.613 102.678C332.206 101.343 331.17 100.306 329.843 99.9081L313.82 95.0317C309.889 93.8292 309.889 88.2644 313.82 87.0619L329.843 82.1855C331.17 81.7791 332.206 80.7507 332.613 79.4155L337.489 63.4013C338.683 59.4703 344.248 59.4703 345.451 63.4013L350.327 79.4155C350.733 80.7507 351.77 81.7791 353.089 82.1855L369.111 87.0619Z" fill="#2E2E2E"/>
  <path d="M317.287 190.188C321.467 195.662 324.452 211.012 314.965 253.009C308.297 282.558 298.627 308.69 287 328.577C272.769 352.926 255.718 368.111 236.337 373.709C220.09 378.403 204.897 377.706 191.163 371.66C178.997 366.295 167.586 356.6 157.269 342.858C151.613 335.203 147.732 326.761 144.937 318.343C143.726 314.686 142.723 311.037 141.86 307.454C140.077 300.007 138.933 292.867 137.938 286.613C137.589 284.407 137.258 282.351 136.926 280.452C135.989 275.078 135.508 270.931 134.944 266.137C134.222 260.017 133.409 253.084 131.444 241.424C130.217 234.092 127.571 226.554 125.017 219.264C118.847 201.699 115.695 190.594 123.881 184.549C126.601 182.533 128.823 181.936 130.59 181.936C131.776 181.936 132.754 182.21 133.55 182.5C145.634 186.954 157.261 215.317 162.95 239.782L165.513 250.812L172.454 241.863C190.392 218.767 198.685 189.433 205.353 165.872C212.112 141.946 217.461 123.054 228.524 123.046H228.533C229.246 123.046 229.984 123.113 230.739 123.303C233.517 124.033 236.486 126.596 239.123 134.615C239.223 135.668 239.281 136.755 239.33 137.866C240.201 159.827 231.095 192.618 221.765 214.943C220.613 217.688 221.915 220.848 224.66 221.993C227.405 223.145 230.565 221.852 231.709 219.098C236.594 207.413 241.279 193.481 244.704 179.506C248.652 163.409 250.933 147.279 249.938 134.516C253.271 127.558 256.448 125.244 259.243 124.556C260.802 124.174 262.236 124.29 263.505 124.398C267.113 124.713 269.742 126.397 271.765 129.714C274.336 133.919 275.671 140.089 276.045 147.47C276.011 147.81 276.02 148.166 276.069 148.523L276.094 148.722C276.965 173.494 267.561 211.021 257.882 234.714C256.755 237.476 258.081 240.619 260.835 241.747C263.588 242.867 266.74 241.548 267.867 238.795C269.427 234.955 271.143 230.352 272.877 225.177C277.148 212.464 281.568 196.325 284.321 179.772C284.412 179.2 284.495 178.644 284.587 178.08C286.071 168.742 286.859 160.366 286.909 153.001C291.727 153.192 295.31 154.784 297.806 157.828C302.699 163.774 304.109 175.012 302.077 191.399C300.493 204.204 296.803 220.152 291.006 239.201C289.853 242.999 288.617 246.914 287.29 250.961C286.37 253.789 287.912 256.832 290.74 257.761C293.568 258.682 296.612 257.139 297.541 254.311C304.673 232.5 311.739 208.002 313.397 187.426C315.014 187.932 316.25 188.82 317.287 190.188Z" fill="#F5A85A"/>
  <path d="M234.944 81.7211C239.156 86.8463 241.404 93.8209 242.217 102.006C238.194 100.107 234.28 99.3276 230.979 99.0871C230.158 94.617 228.699 91.109 226.609 88.563C224.113 85.5277 220.53 83.9271 215.712 83.7363C215.67 89.2928 215.214 95.4298 214.36 102.114C210.197 104.071 205.95 107.131 201.978 111.801C204.068 100.149 205.229 88.8864 204.897 79.4653C204.889 79.3907 204.872 79.3243 204.864 79.258C204.823 78.9014 204.814 78.553 204.839 78.2047C204.474 70.8238 203.139 64.6536 200.568 60.4489C198.545 57.1317 195.916 55.4481 192.308 55.1413C188.75 54.8344 183.924 54.4198 178.74 65.2507C180.606 89.0854 171.028 124.688 160.512 149.842C159.367 152.587 156.208 153.88 153.463 152.736C150.718 151.583 149.415 148.423 150.568 145.678C160.371 122.225 169.933 87.2112 167.926 65.3502C164.575 55.1827 160.703 53.7812 157.336 53.7812C146.272 53.7895 140.923 72.6814 134.164 96.6074C127.513 120.11 119.253 149.336 101.414 172.407L101.265 172.606L94.3236 181.547L91.7527 170.517C86.0719 146.052 74.4448 117.689 62.3532 113.235C61.5654 112.945 60.5868 112.671 59.4008 112.671C57.6344 112.671 55.4118 113.277 52.6916 115.284C44.5062 121.329 47.6576 132.434 53.8278 150.007C56.3821 157.297 59.0277 164.836 60.255 172.159C62.2122 183.827 63.0333 190.76 63.7465 196.872C64.3104 201.674 64.7997 205.813 65.7369 211.187C66.0686 213.086 66.4003 215.151 66.7486 217.348C69.3278 233.537 72.8607 255.705 86.0801 273.593C95.2276 285.776 105.237 294.774 115.861 300.397C116.608 304.543 117.487 308.964 118.606 313.558C103.579 307.711 89.8204 296.532 77.4303 280.037C62.6269 259.992 58.7042 235.353 56.1001 219.049C55.7601 216.901 55.4367 214.885 55.1215 213.036C54.1264 207.372 53.6288 203.092 53.0399 198.133C52.335 192.137 51.5389 185.345 49.6231 173.942C48.545 167.531 46.057 160.432 43.652 153.574C37.7721 136.821 31.1044 117.83 46.281 106.617C54.3337 100.663 61.4907 101.426 66.0852 103.118C83.0365 109.362 94.0831 139.127 99.2415 156.675C111.524 137.037 117.984 114.181 123.789 93.6799C127.629 80.0873 130.946 68.3524 135.458 59.4786C137.523 55.4067 143.826 43.0083 157.336 43C165.629 43 170.746 47.6359 173.922 52.5621C178.956 46.2758 185.176 43.7049 193.229 44.3933C200.245 44.9987 205.959 48.6062 209.765 54.8261C212.577 59.4206 214.393 65.4746 215.214 72.9385C223.615 73.0464 230.233 75.9904 234.944 81.7211Z" fill="#2E2E2E"/>
  <path d="M226.609 88.563C228.699 91.109 230.158 94.617 230.979 99.0871C230.125 99.029 229.304 98.9958 228.541 98.9958H228.516C224.311 98.9958 219.394 99.7505 214.36 102.114C215.214 95.4298 215.67 89.2928 215.711 83.7363C220.53 83.9271 224.112 85.5277 226.609 88.563Z" fill="#F5A85A"/>
  <path d="M204.897 79.4653C205.229 88.8864 204.068 100.149 201.978 111.801C199.457 114.761 197.035 118.361 194.812 122.731C189.72 132.758 186.237 145.073 182.207 159.329C179.196 169.978 175.995 181.289 171.89 192.311C163.348 174.821 153.512 164.222 141.86 159.934C131.046 155.945 119.576 157.82 109.583 165.209C107.004 167.108 104.292 169.596 101.912 172.789L101.406 172.407C119.244 149.336 127.505 120.11 134.156 96.6074C140.915 72.6814 146.264 53.7895 157.327 53.7812C160.694 53.7812 164.567 55.1827 167.917 65.3502C169.924 87.2112 160.362 122.225 150.56 145.678C149.407 148.423 150.709 151.583 153.454 152.736C156.199 153.88 159.359 152.587 160.503 149.842C171.019 124.688 180.598 89.0854 178.732 65.2507C183.915 54.4198 188.742 54.8344 192.299 55.1413C195.907 55.4481 198.536 57.1317 200.56 60.4489C203.13 64.6536 204.466 70.8238 204.831 78.2047C204.806 78.553 204.814 78.9014 204.855 79.258C204.864 79.3243 204.88 79.3907 204.889 79.4653H204.897Z" fill="#F5A85A"/>
  <path d="M325.862 183.653C322.86 179.714 318.788 177.3 313.737 176.471C313.455 166.03 311.216 157.164 306.141 150.986C301.43 145.247 294.812 142.311 286.411 142.204C285.59 134.74 283.774 128.686 280.963 124.091C277.156 117.871 271.442 114.264 264.426 113.658C260.901 113.36 257.733 113.683 254.864 114.662C251.53 115.798 248.602 117.83 245.982 120.799C245.691 121.13 245.401 121.47 245.119 121.827C244.315 120.575 243.386 119.347 242.308 118.211C239.712 115.45 236.27 113.227 231.709 112.514C230.706 112.356 229.652 112.265 228.533 112.265H228.524C220.165 112.265 214.575 117.009 211.026 121.595C208.845 124.423 207.435 127.184 206.647 128.744C202.135 137.617 198.818 149.352 194.978 162.937C194.058 166.188 193.112 169.505 192.142 172.855C186.975 190.619 180.764 209.412 170.43 225.94C165.272 208.383 154.234 178.627 137.274 172.383C132.688 170.691 125.523 169.928 117.47 175.874C102.293 187.095 108.961 206.078 114.841 222.839C117.246 229.697 119.742 236.788 120.812 243.207C122.728 254.61 123.524 261.402 124.229 267.398C124.818 272.349 125.315 276.628 126.311 282.301C126.626 284.15 126.949 286.166 127.289 288.305C128.118 293.472 129.072 299.485 130.465 305.912C131.286 309.669 132.248 313.566 133.418 317.531C136.578 328.196 141.247 339.317 148.619 349.302C167.777 374.795 190.193 387.617 215.496 387.617C223.175 387.617 231.129 386.439 239.331 384.067C292.482 368.725 316.118 296.856 325.481 255.389C334.064 217.373 334.188 194.575 325.862 183.653ZM287 328.577C272.769 352.926 255.718 368.111 236.337 373.709C220.09 378.403 204.897 377.706 191.164 371.66C178.997 366.295 167.586 356.6 157.269 342.858C151.613 335.203 147.732 326.761 144.937 318.343C143.726 314.686 142.723 311.037 141.86 307.454C140.077 300.007 138.933 292.867 137.938 286.613C137.589 284.407 137.258 282.351 136.926 280.452C135.989 275.078 135.508 270.931 134.944 266.137C134.222 260.017 133.41 253.084 131.444 241.424C130.217 234.092 127.571 226.554 125.017 219.264C118.847 201.699 115.695 190.594 123.881 184.549C126.601 182.533 128.823 181.936 130.59 181.936C131.776 181.936 132.754 182.21 133.55 182.5C145.634 186.954 157.261 215.317 162.95 239.782L165.513 250.812L172.454 241.863C190.392 218.767 198.685 189.433 205.353 165.872C212.112 141.946 217.461 123.054 228.524 123.046H228.533C229.246 123.046 229.984 123.113 230.739 123.303C233.517 124.033 236.486 126.596 239.123 134.615C239.223 135.668 239.281 136.755 239.331 137.866C240.201 159.827 231.095 192.618 221.766 214.943C220.613 217.688 221.915 220.848 224.66 221.993C227.405 223.145 230.565 221.852 231.709 219.098C236.594 207.413 241.279 193.481 244.705 179.506C248.652 163.409 250.933 147.279 249.938 134.516C253.271 127.558 256.448 125.244 259.243 124.556C260.802 124.174 262.236 124.29 263.505 124.398C267.113 124.713 269.742 126.397 271.765 129.714C274.336 133.919 275.671 140.089 276.045 147.47C276.011 147.81 276.02 148.166 276.07 148.523L276.094 148.722C276.965 173.494 267.561 211.021 257.883 234.714C256.755 237.476 258.082 240.619 260.835 241.747C263.588 242.867 266.74 241.548 267.868 238.795C269.427 234.955 271.143 230.352 272.877 225.177C277.148 212.464 281.568 196.325 284.321 179.772C284.413 179.2 284.495 178.644 284.587 178.08C286.071 168.742 286.859 160.366 286.909 153.001C291.727 153.192 295.31 154.784 297.806 157.828C302.699 163.774 304.109 175.012 302.077 191.399C300.493 204.204 296.803 220.152 291.006 239.201C289.853 242.999 288.617 246.914 287.29 250.961C286.37 253.789 287.912 256.832 290.74 257.761C293.568 258.682 296.612 257.139 297.541 254.311C304.673 232.5 311.739 208.002 313.397 187.426C315.015 187.932 316.25 188.82 317.287 190.188C321.467 195.662 324.452 211.012 314.965 253.009C308.297 282.558 298.627 308.69 287 328.577Z" fill="#2E2E2E"/>
  <path d="M114.186 290.395C114.675 293.472 115.214 296.831 115.853 300.397C105.229 294.774 95.219 285.776 86.0715 273.593C72.8521 255.705 69.3192 233.537 66.74 217.348C66.3917 215.151 66.06 213.086 65.7283 211.187C64.7911 205.813 64.3018 201.674 63.7379 196.872C63.0247 190.76 62.2036 183.827 60.2464 172.159C59.0191 164.836 56.3735 157.297 53.8192 150.007C47.649 132.434 44.4976 121.33 52.683 115.284C55.4032 113.277 57.6258 112.671 59.3922 112.671C60.5782 112.671 61.5568 112.945 62.3446 113.235C74.4362 117.689 86.0633 146.052 91.7441 170.517L94.315 181.547L101.256 172.607L101.406 172.407L101.912 172.789C97.4001 178.851 94.0662 187.443 95.0697 199.394C95.8658 208.823 99.1417 218.186 102.318 227.234C104.541 233.562 106.838 240.113 107.725 245.404C109.591 256.484 110.371 263.102 111.051 268.949C111.631 273.883 112.187 278.544 113.232 284.573C113.547 286.365 113.854 288.314 114.186 290.395Z" fill="#F5A85A"/>
  <path d="M253.968 322.108C244.92 328.096 232.124 333.205 219.037 333.205C213.995 333.205 208.911 332.45 203.977 330.692C194.191 327.209 186.204 320.325 180.1 310.199C178.326 307.255 176.708 304.046 175.257 300.554C174.171 297.95 173.159 295.205 172.255 292.294C171.368 289.45 172.952 286.431 175.796 285.544C178.641 284.656 181.66 286.24 182.547 289.085C182.978 290.461 183.434 291.78 183.907 293.066C184.148 293.729 184.388 294.401 184.645 295.048C186.072 298.663 187.68 301.906 189.455 304.817C194.257 312.662 200.319 317.937 207.601 320.533C220.082 324.978 234.529 320.823 244.53 315.242C245.766 314.553 246.944 313.84 248.038 313.119C250.518 311.476 253.869 312.157 255.511 314.636C257.153 317.116 256.473 320.466 253.993 322.108H253.968Z" fill="#2E2E2E"/>
  <path d="M209.823 255.091C212.543 256.31 213.762 259.495 212.543 262.215L209.259 269.571L206.697 275.31C205.909 277.076 204.275 278.212 202.484 278.453C202.251 278.486 202.011 278.503 201.771 278.503C201.032 278.503 200.286 278.353 199.573 278.03C196.853 276.811 195.634 273.626 196.853 270.906L202.708 257.811C203.927 255.091 207.111 253.872 209.832 255.091H209.823Z" fill="#2E2E2E"/>
  <path d="M236.32 293.522C235.582 293.522 234.836 293.372 234.122 293.049C231.402 291.83 230.183 288.645 231.402 285.925L237.257 272.83C238.476 270.11 241.661 268.899 244.381 270.11C247.101 271.329 248.32 274.514 247.101 277.234L241.246 290.329C240.351 292.336 238.385 293.522 236.32 293.522Z" fill="#2E2E2E"/>
</svg>