<?xml version="1.0" encoding="UTF-8"?>
<svg id="Layer_1" data-name="Layer 1" xmlns="http://www.w3.org/2000/svg" viewBox="0 0 33.2 33.2">
  <defs>
    <style>
      .cls-1 {
        fill: #f9a34b;
      }
    </style>
  </defs>
  <path class="cls-1" d="M9.22,7.38H3.69v7.38h25.82v-7.38h-5.53v3.69h-3.69v-3.69h-7.38v3.69h-3.69v-3.69h0ZM23.97,22.13c1.02,0,1.84.83,1.84,1.85s-.82,1.85-1.84,1.85-1.84-.83-1.84-1.85.82-1.85,1.84-1.85ZM29.51,18.44H3.69v11.07h25.82v-11.07h0ZM12.91,0v3.69h7.38V0h3.69v3.69h7.38c1.02,0,1.85.83,1.85,1.85v25.82c0,1.02-.82,1.85-1.85,1.85H1.85c-1.02,0-1.85-.82-1.85-1.85V5.53c0-1.02.82-1.85,1.85-1.85h7.38V0h3.69,0Z"/>
</svg>