<svg xmlns="http://www.w3.org/2000/svg" version="1.1" xmlns:xlink="http://www.w3.org/1999/xlink" width="430.87" height="415.54"><svg id="SvgjsSvg1009" data-name="Layer 1" xmlns="http://www.w3.org/2000/svg" viewBox="0 0 430.87 415.54">
  <defs>
    <style>
      .cls-1 {
        fill: #f5a85a;
      }

      .cls-2 {
        fill: #2e2e2e;
      }
    </style>
  </defs>
  <g id="SvgjsG1008">
    <g>
      <path class="cls-2" d="M428.55,119.3c2.77.85,2.77,4.76,0,5.61l-11.28,3.43c-.94.29-1.67,1.02-1.95,1.95l-3.43,11.28c-.85,2.77-4.77,2.77-5.61,0l-3.43-11.28c-.29-.93-1.02-1.66-1.95-1.95l-11.28-3.43c-2.77-.85-2.77-4.76,0-5.61l11.28-3.43c.93-.29,1.66-1.02,1.95-1.95l3.43-11.28c.84-2.77,4.76-2.77,5.61,0l3.43,11.28c.28.93,1.01,1.66,1.95,1.95l11.28,3.43Z"></path>
      <path class="cls-2" d="M400.48,53.14c4.74,1.45,4.74,8.16,0,9.6l-19.32,5.88c-1.6.49-2.85,1.74-3.33,3.34l-5.88,19.32c-1.45,4.74-8.16,4.74-9.61,0l-5.88-19.32c-.48-1.6-1.73-2.85-3.34-3.34l-19.31-5.88c-4.75-1.44-4.75-8.15,0-9.6l19.31-5.88c1.61-.49,2.86-1.74,3.34-3.34l5.88-19.31c1.45-4.74,8.16-4.74,9.61,0l5.88,19.31c.48,1.6,1.73,2.85,3.33,3.34l19.32,5.88Z"></path>
    </g>
  </g>
  <g>
    <path class="cls-1" d="M337.98,177.48c5.04,6.6,8.64,25.11-2.8,75.75-8.04,35.63-19.7,67.14-33.72,91.12-17.16,29.36-37.72,47.67-61.09,54.42-19.59,5.66-37.91,4.82-54.47-2.47-14.67-6.47-28.43-18.16-40.87-34.73-6.82-9.23-11.5-19.41-14.87-29.56-1.46-4.41-2.67-8.81-3.71-13.13-2.15-8.98-3.53-17.59-4.73-25.13-.42-2.66-.82-5.14-1.22-7.43-1.13-6.48-1.71-11.48-2.39-17.26-.87-7.38-1.85-15.74-4.22-29.8-1.48-8.84-4.67-17.93-7.75-26.72-7.44-21.18-11.24-34.57-1.37-41.86,3.28-2.43,5.96-3.15,8.09-3.15,1.43,0,2.61.33,3.57.68,14.57,5.37,28.59,39.57,35.45,69.07l3.09,13.3,8.37-10.79c21.63-27.85,31.63-63.22,39.67-91.63,8.15-28.85,14.6-51.63,27.94-51.64h.01c.86,0,1.75.08,2.66.31,3.35.88,6.93,3.97,10.11,13.64.12,1.27.19,2.58.25,3.92,1.05,26.48-9.93,66.02-21.18,92.94-1.39,3.31.18,7.12,3.49,8.5,3.31,1.39,7.12-.17,8.5-3.49,5.89-14.09,11.54-30.89,15.67-47.74,4.76-19.41,7.51-38.86,6.31-54.25,4.02-8.39,7.85-11.18,11.22-12.01,1.88-.46,3.61-.32,5.14-.19,4.35.38,7.52,2.41,9.96,6.41,3.1,5.07,4.71,12.51,5.16,21.41-.04.41-.03.84.03,1.27l.03.24c1.05,29.87-10.29,75.12-21.96,103.69-1.36,3.33.24,7.12,3.56,8.48,3.32,1.35,7.12-.24,8.48-3.56,1.88-4.63,3.95-10.18,6.04-16.42,5.15-15.33,10.48-34.79,13.8-54.75.11-.69.21-1.36.32-2.04,1.79-11.26,2.74-21.36,2.8-30.24,5.81.23,10.13,2.15,13.14,5.82,5.9,7.17,7.6,20.72,5.15,40.48-1.91,15.44-6.36,34.67-13.35,57.64-1.39,4.58-2.88,9.3-4.48,14.18-1.11,3.41.75,7.08,4.16,8.2,3.41,1.11,7.08-.75,8.2-4.16,8.6-26.3,17.12-55.84,19.12-80.65,1.95.61,3.44,1.68,4.69,3.33Z"></path>
    <path class="cls-2" d="M238.69,46.69c5.08,6.18,7.79,14.59,8.77,24.46-4.85-2.29-9.57-3.23-13.55-3.52-.99-5.39-2.75-9.62-5.27-12.69-3.01-3.66-7.33-5.59-13.14-5.82-.05,6.7-.6,14.1-1.63,22.16-5.02,2.36-10.14,6.05-14.93,11.68,2.52-14.05,3.92-27.63,3.52-38.99-.01-.09-.03-.17-.04-.25-.05-.43-.06-.85-.03-1.27-.44-8.9-2.05-16.34-5.15-21.41-2.44-4-5.61-6.03-9.96-6.4-4.29-.37-10.11-.87-16.36,12.19,2.25,28.74-9.3,71.67-21.98,102-1.38,3.31-5.19,4.87-8.5,3.49-3.31-1.39-4.88-5.2-3.49-8.51,11.82-28.28,23.35-70.5,20.93-96.86-4.04-12.26-8.71-13.95-12.77-13.95h0c-13.34.01-19.79,22.79-27.94,51.64-8.02,28.34-17.98,63.58-39.49,91.4l-.18.24-8.37,10.78-3.1-13.3c-6.85-29.5-20.87-63.7-35.45-69.07-.95-.35-2.13-.68-3.56-.68-2.13,0-4.81.73-8.09,3.15-9.87,7.29-6.07,20.68,1.37,41.87,3.08,8.79,6.27,17.88,7.75,26.71,2.36,14.07,3.35,22.43,4.21,29.8.68,5.79,1.27,10.78,2.4,17.26.4,2.29.8,4.78,1.22,7.43,3.11,19.52,7.37,46.25,23.31,67.82,11.03,14.69,23.1,25.54,35.91,32.32.9,5,1.96,10.33,3.31,15.87-18.12-7.05-34.71-20.53-49.65-40.42-17.85-24.17-22.58-53.88-25.72-73.54-.41-2.59-.8-5.02-1.18-7.25-1.2-6.83-1.8-11.99-2.51-17.97-.85-7.23-1.81-15.42-4.12-29.17-1.3-7.73-4.3-16.29-7.2-24.56-7.09-20.2-15.13-43.1,3.17-56.62,9.71-7.18,18.34-6.26,23.88-4.22,20.44,7.53,33.76,43.42,39.98,64.58,14.81-23.68,22.6-51.24,29.6-75.96,4.63-16.39,8.63-30.54,14.07-41.24C121.21,14.96,128.81.01,145.1,0h0c10,0,16.17,5.59,20,11.53,6.07-7.58,13.57-10.68,23.28-9.85,8.46.73,15.35,5.08,19.94,12.58,3.39,5.54,5.58,12.84,6.57,21.84,10.13.13,18.11,3.68,23.79,10.59Z"></path>
    <path class="cls-1" d="M228.64,54.94c2.52,3.07,4.28,7.3,5.27,12.69-1.03-.07-2.02-.11-2.94-.11h-.03c-5.07,0-11,.91-17.07,3.76,1.03-8.06,1.58-15.46,1.63-22.16,5.81.23,10.13,2.16,13.14,5.82Z"></path>
    <path class="cls-1" d="M202.46,43.97c.4,11.36-1,24.94-3.52,38.99-3.04,3.57-5.96,7.91-8.64,13.18-6.14,12.09-10.34,26.94-15.2,44.13-3.63,12.84-7.49,26.48-12.44,39.77-10.3-21.09-22.16-33.87-36.21-39.04-13.04-4.81-26.87-2.55-38.92,6.36-3.11,2.29-6.38,5.29-9.25,9.14l-.61-.46c21.51-27.82,31.47-63.06,39.49-91.4,8.15-28.85,14.6-51.63,27.94-51.64h0c4.06,0,8.73,1.69,12.77,13.95,2.42,26.36-9.11,68.58-20.93,96.86-1.39,3.31.18,7.12,3.49,8.51,3.31,1.38,7.12-.18,8.5-3.49,12.68-30.33,24.23-73.26,21.98-102,6.25-13.06,12.07-12.56,16.36-12.19,4.35.37,7.52,2.4,9.96,6.4,3.1,5.07,4.71,12.51,5.15,21.41-.03.42-.02.84.03,1.27.01.08.03.16.04.25Z"></path>
    <path class="cls-2" d="M348.32,169.6c-3.62-4.75-8.53-7.66-14.62-8.66-.34-12.59-3.04-23.28-9.16-30.73-5.68-6.92-13.66-10.46-23.79-10.59-.99-9-3.18-16.3-6.57-21.84-4.59-7.5-11.48-11.85-19.94-12.58-4.25-.36-8.07.03-11.53,1.21-4.02,1.37-7.55,3.82-10.71,7.4-.35.4-.7.81-1.04,1.24-.97-1.51-2.09-2.99-3.39-4.36-3.13-3.33-7.28-6.01-12.78-6.87-1.21-.19-2.48-.3-3.83-.3h-.01c-10.08,0-16.82,5.72-21.1,11.25-2.63,3.41-4.33,6.74-5.28,8.62-5.44,10.7-9.44,24.85-14.07,41.23-1.11,3.92-2.25,7.92-3.42,11.96-6.23,21.42-13.72,44.08-26.18,64.01-6.22-21.17-19.53-57.05-39.98-64.58-5.53-2.04-14.17-2.96-23.88,4.21-18.3,13.53-10.26,36.42-3.17,56.63,2.9,8.27,5.91,16.82,7.2,24.56,2.31,13.75,3.27,21.94,4.12,29.17.71,5.97,1.31,11.13,2.51,17.97.38,2.23.77,4.66,1.18,7.24,1,6.23,2.15,13.48,3.83,21.23.99,4.53,2.15,9.23,3.56,14.01,3.81,12.86,9.44,26.27,18.33,38.31,23.1,30.74,50.13,46.2,80.64,46.2,9.26,0,18.85-1.42,28.74-4.28,64.09-18.5,92.59-105.16,103.88-155.16,10.35-45.84,10.5-73.33.46-86.5ZM301.46,344.35c-17.16,29.36-37.72,47.67-61.09,54.42-19.59,5.66-37.91,4.82-54.47-2.47-14.67-6.47-28.43-18.16-40.87-34.73-6.82-9.23-11.5-19.41-14.87-29.56-1.46-4.41-2.67-8.81-3.71-13.13-2.15-8.98-3.53-17.59-4.73-25.13-.42-2.66-.82-5.14-1.22-7.43-1.13-6.48-1.71-11.48-2.39-17.26-.87-7.38-1.85-15.74-4.22-29.8-1.48-8.84-4.67-17.93-7.75-26.72-7.44-21.18-11.24-34.57-1.37-41.86,3.28-2.43,5.96-3.15,8.09-3.15,1.43,0,2.61.33,3.57.68,14.57,5.37,28.59,39.57,35.45,69.07l3.09,13.3,8.37-10.79c21.63-27.85,31.63-63.22,39.67-91.63,8.15-28.85,14.6-51.63,27.94-51.64h.01c.86,0,1.75.08,2.66.31,3.35.88,6.93,3.97,10.11,13.64.12,1.27.19,2.58.25,3.92,1.05,26.48-9.93,66.02-21.18,92.94-1.39,3.31.18,7.12,3.49,8.5,3.31,1.39,7.12-.17,8.5-3.49,5.89-14.09,11.54-30.89,15.67-47.74,4.76-19.41,7.51-38.86,6.31-54.25,4.02-8.39,7.85-11.18,11.22-12.01,1.88-.46,3.61-.32,5.14-.19,4.35.38,7.52,2.41,9.96,6.41,3.1,5.07,4.71,12.51,5.16,21.41-.04.41-.03.84.03,1.27l.03.24c1.05,29.87-10.29,75.12-21.96,103.69-1.36,3.33.24,7.12,3.56,8.48,3.32,1.35,7.12-.24,8.48-3.56,1.88-4.63,3.95-10.18,6.04-16.42,5.15-15.33,10.48-34.79,13.8-54.75.11-.69.21-1.36.32-2.04,1.79-11.26,2.74-21.36,2.8-30.24,5.81.23,10.13,2.15,13.14,5.82,5.9,7.17,7.6,20.72,5.15,40.48-1.91,15.44-6.36,34.67-13.35,57.64-1.39,4.58-2.88,9.3-4.48,14.18-1.11,3.41.75,7.08,4.16,8.2,3.41,1.11,7.08-.75,8.2-4.16,8.6-26.3,17.12-55.84,19.12-80.65,1.95.61,3.44,1.68,4.69,3.33,5.04,6.6,8.64,25.11-2.8,75.75-8.04,35.63-19.7,67.14-33.72,91.12Z"></path>
    <path class="cls-1" d="M93.08,298.31c.59,3.71,1.24,7.76,2.01,12.06-12.81-6.78-24.88-17.63-35.91-32.32-15.94-21.57-20.2-48.3-23.31-67.82-.42-2.65-.82-5.14-1.22-7.43-1.13-6.48-1.72-11.47-2.4-17.26-.86-7.37-1.85-15.73-4.21-29.8-1.48-8.83-4.67-17.92-7.75-26.71-7.44-21.19-11.24-34.58-1.37-41.87,3.28-2.42,5.96-3.15,8.09-3.15,1.43,0,2.61.33,3.56.68,14.58,5.37,28.6,39.57,35.45,69.07l3.1,13.3,8.37-10.78.18-.24.61.46c-5.44,7.31-9.46,17.67-8.25,32.08.96,11.37,4.91,22.66,8.74,33.57,2.68,7.63,5.45,15.53,6.52,21.91,2.25,13.36,3.19,21.34,4.01,28.39.7,5.95,1.37,11.57,2.63,18.84.38,2.16.75,4.51,1.15,7.02Z"></path>
  </g>
  <g id="SvgjsG1007">
    <path class="cls-2" d="M261.63,336.55c-10.91,7.22-26.34,13.38-42.12,13.38-6.08,0-12.21-.91-18.16-3.03-11.8-4.2-21.43-12.5-28.79-24.71-2.14-3.55-4.09-7.42-5.84-11.63-1.31-3.14-2.53-6.45-3.62-9.96-1.07-3.43.84-7.07,4.27-8.14,3.43-1.07,7.07.84,8.14,4.27.52,1.66,1.07,3.25,1.64,4.8.29.8.58,1.61.89,2.39,1.72,4.36,3.66,8.27,5.8,11.78,5.79,9.46,13.1,15.82,21.88,18.95,15.05,5.36,32.47.35,44.53-6.38,1.49-.83,2.91-1.69,4.23-2.56,2.99-1.98,7.03-1.16,9.01,1.83,1.98,2.99,1.16,7.03-1.83,9.01Z"></path>
    <path class="cls-2" d="M208.41,255.74c3.28,1.47,4.75,5.31,3.28,8.59l-3.96,8.87-3.09,6.92c-.95,2.13-2.92,3.5-5.08,3.79-.28.04-.57.06-.86.06-.89,0-1.79-.18-2.65-.57-3.28-1.47-4.75-5.31-3.28-8.59l7.06-15.79c1.47-3.28,5.31-4.75,8.59-3.28Z"></path>
    <path class="cls-2" d="M240.35,302.08c-.89,0-1.79-.18-2.65-.57-3.28-1.47-4.75-5.31-3.28-8.59l7.06-15.79c1.47-3.28,5.31-4.74,8.59-3.28,3.28,1.47,4.75,5.31,3.28,8.59l-7.06,15.79c-1.08,2.42-3.45,3.85-5.94,3.85Z"></path>
  </g>
</svg><style>@media (prefers-color-scheme: light) { :root { filter: none; } }
@media (prefers-color-scheme: dark) { :root { filter: none; } }
</style></svg>