<?xml version="1.0" encoding="UTF-8"?>
<svg id="Vrstva_1" xmlns="http://www.w3.org/2000/svg" version="1.1" viewBox="0 0 1491.93 468.55">
  <!-- Generator: Adobe Illustrator 29.6.1, SVG Export Plug-In . SVG Version: 2.1.1 Build 9)  -->
  <defs>
    <style>
      .st0 {
        fill: #f6a85a;
      }

      .st1 {
        fill: #fff;
      }

      .st2 {
        fill: none;
        stroke: #2e2e2e;
        stroke-width: 13px;
      }

      .st3 {
        fill: #2e2e2e;
      }
    </style>
  </defs>
  <g>
    <path class="st0" d="M1484.61,377.33c-3.17-3.44-7.66-6.21-13.48-8.32-5.81-2.25-12.62-4.44-20.42-6.54-5.42-1.59-9.98-3.05-13.68-4.37-3.7-1.46-6.48-3.17-8.34-5.15-1.84-2.12-2.76-5.03-2.76-8.73,0-4.5,1.19-7.99,3.56-10.51,2.52-2.65,5.69-4.49,9.52-5.55,3.83-1.2,7.86-1.79,12.09-1.79,6.22,0,11.83,1.07,16.86,3.18,5.15,1.99,9.59,5.09,13.28,9.32l6.54-9.13c-3.83-4.49-8.78-7.99-14.86-10.5-6.08-2.51-13.09-3.78-21.02-3.78-7.27,0-13.88,1.2-19.84,3.58-5.81,2.25-10.43,5.62-13.87,10.11-3.3,4.37-4.96,9.91-4.96,16.65,0,5.42,1.2,9.86,3.57,13.3,2.51,3.3,6.15,6.06,10.91,8.32,4.89,2.11,10.91,4.16,18.04,6.15,6.35,1.59,11.77,3.1,16.26,4.55,4.63,1.32,8.13,3.12,10.51,5.36,2.51,2.11,3.77,5.21,3.77,9.31,0,6.08-2.52,10.78-7.53,14.08-5.03,3.18-11.57,4.76-19.64,4.76-6.61,0-12.89-1.19-18.84-3.56-5.81-2.52-11.63-6.48-17.44-11.91l-5.56,9.52c5.29,5.69,11.57,9.92,18.84,12.69,7.27,2.78,15.14,4.17,23.6,4.17,11.89,0,21.48-2.71,28.74-8.13,7.29-5.42,10.91-12.96,10.91-22.6,0-6.22-1.59-11.04-4.76-14.48Z"/>
    <path class="st0" d="M1389.23,404.3v-128.48h-13.49v63.05c-3.83-6.49-9.18-11.97-16.06-16.46-6.74-4.63-14.4-6.95-23-6.95-9.12,0-17.25,2.46-24.38,7.35-7.15,4.88-12.76,11.44-16.86,19.62-3.96,8.06-5.94,16.99-5.94,26.77,0,6.87,1.18,13.55,3.56,20.03,2.52,6.34,5.94,12.03,10.31,17.05,4.49,5.03,9.72,8.99,15.67,11.9,6.08,2.9,12.69,4.36,19.82,4.36,7.54,0,14.81-1.98,21.82-5.95,7-3.96,12.55-9.31,16.65-16.06v10.12c0,2.5,1.05,4.82,3.17,6.93,2.12,2.11,4.56,3.25,7.34,3.37,1.45.13,3.5,0,6.15-.39v-10.71c-1.6-.13-2.78-.59-3.58-1.39-.78-.93-1.18-2.32-1.18-4.16ZM1375.74,385.07c-.52,3.44-1.91,6.74-4.16,9.91-2.24,3.17-5.09,5.94-8.53,8.33-3.3,2.24-6.81,4.03-10.5,5.35-3.71,1.33-7.27,1.99-10.71,1.99-5.42,0-10.45-1.07-15.07-3.19-4.63-2.1-8.73-5.08-12.3-8.91-3.56-3.96-6.34-8.47-8.32-13.48-1.85-5.03-2.78-10.32-2.78-15.87s.87-10.44,2.58-15.47c1.72-5.02,4.16-9.51,7.33-13.47,3.31-3.98,7.22-7.08,11.71-9.33,4.49-2.38,9.52-3.56,15.06-3.56,4.76,0,9.52,1.18,14.28,3.56,4.89,2.25,9.25,5.35,13.09,9.33,3.83,3.83,6.61,8.12,8.32,12.88v31.93Z"/>
    <path class="st0" d="M1264.9,327.76c-2.37-3.96-5.55-7-9.52-9.12-3.96-2.11-8.79-3.18-14.47-3.18-6.08,0-11.96,1.07-17.65,3.18-5.67,2.12-10.77,5.09-15.26,8.92-4.49,3.71-8.13,8.06-10.91,13.09v-23.39h-12.3v103.3h13.49v-63.26c1.72-5.67,4.5-10.7,8.33-15.06,3.96-4.5,8.52-7.99,13.69-10.52,5.15-2.64,10.37-3.96,15.65-3.96,7.67,0,13.28,2.84,16.86,8.52,3.57,5.56,5.35,14.42,5.35,26.58v57.7h13.48v-60.48c0-6.74-.52-12.82-1.59-18.24-1.05-5.56-2.76-10.25-5.15-14.08Z"/>
    <path class="st0" d="M1159.63,404.3v-47.79c0-12.83-3.69-22.87-11.1-30.14-7.4-7.27-17.44-10.91-30.15-10.91-6.72,0-13.35,1.2-19.82,3.58-6.47,2.25-13.08,5.69-19.82,10.31l5.15,9.52c5.81-3.96,11.37-6.94,16.65-8.93,5.43-2.11,10.91-3.16,16.47-3.16,9.11,0,16.25,2.57,21.41,7.72,5.15,5.15,7.73,12.1,7.73,20.82v8.73c-4.24-1.58-9.05-2.78-14.47-3.58-5.42-.78-10.64-1.18-15.67-1.18-8.59,0-16.19,1.32-22.8,3.96-6.47,2.52-11.57,6.15-15.27,10.91-3.7,4.62-5.55,10.18-5.55,16.65,0,5.83,1.46,11.18,4.35,16.06,3.05,4.76,7.22,8.6,12.5,11.5,5.42,2.78,11.44,4.17,18.05,4.17,7.67,0,15.19-1.59,22.6-4.76,7.4-3.3,13.41-7.93,18.05-13.88l.19,7.54c.13,2.24,1.06,4.36,2.78,6.34,1.72,1.98,4.23,3.05,7.53,3.17.53.13,1.33.13,2.38,0,1.06-.12,2.32-.26,3.77-.39v-10.71c-1.72-.13-2.98-.59-3.77-1.39-.8-.93-1.19-2.32-1.19-4.16ZM1146.15,388.83c0,1.32-.39,2.84-1.19,4.56s-1.91,3.5-3.37,5.35c-3.05,3.98-7.4,7.21-13.09,9.72-5.55,2.51-11.56,3.76-18.05,3.76-5.15,0-9.64-1.05-13.48-3.16-3.83-2.26-6.74-5.02-8.72-8.32-1.99-3.44-2.97-7.08-2.97-10.91,0-6.61,2.97-11.84,8.93-15.67,5.94-3.83,13.74-5.75,23.39-5.75,4.88,0,9.71.46,14.47,1.39,4.89.92,9.59,2.24,14.08,3.97v15.06Z"/>
    <path class="st0" d="M1048.4,327.96c-2.52-4.1-5.89-7.2-10.11-9.32-4.1-2.11-9.13-3.18-15.08-3.18-8.33,0-16.19,2.32-23.59,6.95-7.27,4.49-12.95,10.57-17.05,18.24v-64.83h-13.48v144.74h13.48v-63.26c1.58-5.67,4.22-10.7,7.93-15.06,3.83-4.5,8.2-7.99,13.08-10.52,5.03-2.64,10.05-3.96,15.07-3.96,7.66,0,13.56,2.98,17.66,8.93,4.09,5.81,6.13,14.53,6.13,26.17v57.7h13.49v-60.48c0-6.74-.6-12.76-1.78-18.04-1.19-5.42-3.11-10.11-5.75-14.08Z"/>
  </g>
  <g>
    <path class="st3" d="M930.46,316.66l-24.58,76.72-27.97-76.72h-27.56l41.05,103.9c-1.71,5.81-3.37,10.32-4.95,13.48-1.59,3.3-3.24,5.56-4.96,6.74-1.59,1.32-3.64,1.98-6.15,1.98-1.46,0-3.24-.2-5.35-.59-1.98-.4-4.17-.86-6.54-1.39v23c2.51.78,4.83,1.32,6.94,1.58,2.1.4,4.22.59,6.34.59,5.95,0,11.3-1.12,16.06-3.37,4.89-2.1,8.93-5.08,12.1-8.91,3.3-3.71,5.76-7.88,7.34-12.5l43.62-124.51h0s-25.38,0-25.38,0Z"/>
    <path class="st3" d="M840.92,396.76c-.93-1.19-1.39-3.17-1.39-5.95v-114.99h-26.58v59.09c-3.43-5.83-8.25-10.58-14.47-14.28-6.08-3.83-12.96-5.76-20.62-5.76-8.99,0-16.99,2.39-24,7.15-7,4.76-12.49,11.23-16.45,19.43-3.96,8.06-5.95,17.11-5.95,27.16,0,7.54,1.19,14.62,3.56,21.22,2.52,6.47,5.96,12.16,10.32,17.04,4.49,4.9,9.72,8.72,15.67,11.5,6.08,2.78,12.68,4.17,19.82,4.17s13.94-1.71,20.43-5.15c6.61-3.44,11.83-8.4,15.67-14.87l.39,6.54c.39,3.83,2.12,6.94,5.15,9.32,3.18,2.39,7.15,3.57,11.91,3.57,2.9,0,6.67-.46,11.3-1.39v-21.62c-2.25-.26-3.84-.98-4.76-2.18ZM808.8,389.63c-1.73,2.12-3.78,3.96-6.15,5.56-2.25,1.46-4.69,2.64-7.34,3.56-2.52.8-5.03,1.2-7.54,1.2-4.1,0-7.93-.8-11.5-2.39-3.44-1.58-6.47-3.76-9.12-6.54-2.64-2.78-4.69-6.01-6.15-9.72-1.32-3.83-1.98-7.87-1.98-12.1s.59-8.25,1.78-12.1c1.32-3.83,3.17-7.2,5.56-10.1,2.51-2.91,5.42-5.23,8.72-6.94,3.3-1.73,7-2.58,11.1-2.58,3.57,0,7.15.92,10.71,2.78,3.57,1.71,6.81,4.09,9.72,7.13,2.91,3.03,5.02,6.47,6.34,10.32v24.78h0c-.92,2.51-2.31,4.88-4.15,7.13Z"/>
    <path class="st3" d="M712.73,327.76c-2.12-3.96-5.29-7.07-9.52-9.32-4.1-2.37-9.38-3.57-15.86-3.57-5.95,0-11.64.86-17.06,2.59-5.29,1.58-9.98,3.96-14.08,7.13-4.1,3.03-7.47,6.81-10.11,11.3v-19.23h-23.99v103.9h26.56v-60.68c1.32-4.22,3.44-7.93,6.35-11.1,2.91-3.3,6.15-5.88,9.71-7.74,3.71-1.85,7.34-2.76,10.91-2.76,5.15,0,9.18,1.91,12.1,5.74,2.91,3.83,4.37,9.91,4.37,18.24v58.29h26.56v-64.83h0c0-5.03-.46-9.99-1.39-14.87-.8-4.89-2.31-9.26-4.56-13.09Z"/>
    <path class="st3" d="M602.64,396.76c-.93-1.19-1.39-3.17-1.39-5.95v-33.1c0-13.75-4.17-24.33-12.5-31.73-8.2-7.4-19.69-11.11-34.49-11.11-7.94,0-15.53,1.13-22.8,3.37-7.15,2.25-14.14,5.62-21.02,10.11l8.52,17.45c5.69-3.83,11.11-6.74,16.26-8.72,5.15-1.98,10.57-2.97,16.26-2.97,7.66,0,13.42,1.78,17.25,5.35,3.96,3.56,5.95,8.66,5.95,15.26v5.56c-3.3-1.46-7.2-2.52-11.69-3.18-4.5-.66-8.93-.98-13.3-.98-8.72,0-16.45,1.39-23.19,4.17-6.74,2.78-12.03,6.74-15.86,11.89-3.71,5.03-5.56,10.91-5.56,17.65,0,6.22,1.52,11.83,4.56,16.85,3.17,4.88,7.47,8.79,12.89,11.69,5.56,2.78,11.62,4.17,18.64,4.17s13.88-1.59,20.62-4.76c6.74-3.17,12.36-7.66,16.86-13.48l.59,5.35c.66,3.44,2.32,6.35,4.96,8.72,2.78,2.39,6.81,3.57,12.1,3.57,1.32,0,2.91-.13,4.76-.39,1.98-.27,4.17-.61,6.54-1v-21.61c-2.24-.26-3.9-.98-4.95-2.18ZM574.68,386.05c0,1.32-.46,2.78-1.39,4.37-.92,1.59-2.12,3.17-3.56,4.76-2.39,2.24-5.49,4.17-9.33,5.74-3.83,1.46-7.86,2.18-11.69,2.18s-7.13-.73-9.91-2.18c-2.78-1.46-4.89-3.37-6.35-5.74-1.46-2.39-2.18-4.9-2.18-7.54,0-4.9,2.18-8.79,6.55-11.7,4.49-3.03,10.17-4.56,17.04-4.56,3.3,0,6.81.4,10.52,1.19,3.69.66,7.13,1.66,10.3,2.98v10.5Z"/>
    <path class="st3" d="M486.73,327.76c-2.37-3.96-5.68-7.07-9.91-9.32-4.23-2.37-9.71-3.57-16.45-3.57-7.81,0-15.01,1.86-21.62,5.56-6.61,3.71-11.84,8.86-15.67,15.47v-60.07h-26.56v144.74h26.56v-60.68c1.32-4.22,3.37-7.93,6.15-11.1,2.91-3.3,6.15-5.88,9.72-7.74,3.56-1.85,6.93-2.76,10.1-2.76,5.42,0,9.65,1.98,12.7,5.95,3.17,3.96,4.75,9.98,4.75,18.04v58.29h26.58v-64.83h0c0-5.16-.46-10.11-1.39-14.87-.93-4.9-2.58-9.26-4.96-13.09Z"/>
  </g>
  <g>
    <g>
      <path class="st0" d="M432.54,124.27c2.77.85,2.77,4.76,0,5.61l-11.28,3.43c-.94.29-1.67,1.02-1.95,1.95l-3.43,11.28c-.85,2.77-4.77,2.77-5.61,0l-3.43-11.28c-.29-.93-1.02-1.66-1.95-1.95l-11.28-3.43c-2.77-.85-2.77-4.76,0-5.61l11.28-3.43c.93-.29,1.66-1.02,1.95-1.95l3.43-11.28c.84-2.78,4.76-2.78,5.61,0l3.43,11.28c.28.93,1.01,1.66,1.95,1.95l11.28,3.43Z"/>
      <path class="st0" d="M404.47,58.11c4.74,1.44,4.74,8.15,0,9.6l-19.32,5.88c-1.6.49-2.84,1.74-3.33,3.34l-5.88,19.32c-1.45,4.73-8.16,4.73-9.61,0l-5.87-19.32c-.49-1.6-1.74-2.85-3.35-3.34l-19.31-5.88c-4.74-1.45-4.74-8.16,0-9.6l19.31-5.88c1.61-.49,2.86-1.74,3.35-3.34l5.87-19.32c1.45-4.74,8.16-4.74,9.61,0l5.88,19.32c.49,1.6,1.73,2.85,3.33,3.34l19.32,5.88Z"/>
    </g>
    <g>
      <path class="st2" d="M366.33,29.57c1.45-4.74,8.16-4.74,9.61,0l5.88,19.32c.49,1.6,1.73,2.85,3.33,3.34l19.32,5.88c4.74,1.44,4.74,8.15,0,9.6l-19.32,5.88c-1.6.49-2.84,1.74-3.33,3.34l-5.88,19.32c-1.45,4.73-8.16,4.73-9.61,0l-5.87-19.32c-.49-1.6-1.74-2.85-3.35-3.34l-19.31-5.88c-4.74-1.45-4.74-8.16,0-9.6l19.31-5.88c1.61-.49,2.86-1.74,3.35-3.34l5.87-19.32Z"/>
      <path class="st2" d="M410.27,107.61c.84-2.78,4.76-2.78,5.61,0l3.43,11.28c.28.93,1.01,1.66,1.95,1.95l11.28,3.43c2.77.85,2.77,4.76,0,5.61l-11.28,3.43c-.94.29-1.67,1.02-1.95,1.95l-3.43,11.28c-.85,2.77-4.77,2.77-5.61,0l-3.43-11.28c-.29-.93-1.02-1.66-1.95-1.95l-11.28-3.43c-2.77-.85-2.77-4.76,0-5.61l11.28-3.43c.93-.29,1.66-1.02,1.95-1.95l3.43-11.28Z"/>
    </g>
  </g>
  <g>
    <path class="st3" d="M298.73,131.43c26.85-3.25,33.83,17.14,32.25,44l-7.34,8.49c2.45-19.76.74-33.31-5.15-40.49-3.01-3.66-7.33-5.58-13.14-5.82-.07,8.89-1.01,18.99-2.8,30.25l-3.82-36.43Z"/>
    <path class="st3" d="M323.64,183.92l7.34-8.49c-1.58,26.66-11.59,59.7-18.99,82.33l-1.7-16.21c6.99-22.96,11.44-42.19,13.35-57.63Z"/>
    <path class="st3" d="M298.73,131.43l3.82,36.43c-.11.68-.21,1.35-.32,2.04-3.32,19.96-8.65,39.42-13.8,54.75l-12.06,13.96c10.95-26.81,23.77-74.51,22.36-107.18Z"/>
    <path class="st3" d="M282.39,241.06c-1.36,3.33-5.16,4.92-8.48,3.56-3.32-1.35-4.92-5.15-3.56-8.47,11.67-28.58,23.01-73.82,21.96-103.69-.01-.08-.03-.16-.04-.24-.05-.43-.06-.86-.03-1.27-.44-8.91-2.05-16.34-5.15-21.42-2.44-3.99-5.61-6.03-9.96-6.4-1.53-.13-3.26-.28-5.14.18-.55-2.22-1.23-4.26-2.02-6.13,2.52-.68,5.09-.75,7.71-.53,14.32,1.23,20.2,15.34,21.05,34.78,1.41,32.67-11.41,80.37-22.36,107.18l12.06-13.96c-2.09,6.23-4.16,11.79-6.04,16.41Z"/>
    <path class="st3" d="M182.3,324.11c22.26,36.33,60.92,24.45,79.74,11.99l-7.81-2.86c1.49-.83,2.91-1.69,4.23-2.56,2.99-1.98,7.02-1.16,9,1.84,1.98,2.99,1.16,7.02-1.83,9-10.91,7.22-26.34,13.38-42.13,13.38-6.08,0-12.21-.91-18.16-3.03-11.8-4.2-21.42-12.5-28.79-24.71,1.95-.95,3.87-1.97,5.75-3.05Z"/>
    <path class="st3" d="M259.12,105.31c-.83-2.86-1.87-4.91-2.99-6.38-.04-.05-.09-.09-.13-.14,3.16-3.59,6.69-6.03,10.7-7.4,1.26,1.69,2.34,3.62,3.27,5.79-3.76,1.01-7.39,3.38-10.85,8.13Z"/>
    <path class="st3" d="M238.79,217.32c-1.38,3.31-5.19,4.88-8.5,3.49-3.31-1.38-4.88-5.19-3.49-8.5,6.38-15.27,12.68-34.6,16.74-53.31l1.04.22-11.79,55.59c12.51-29.91,24.12-73.26,21.35-100.65h.01c1.61-3.61,3.27-6.52,4.97-8.85,2.77,9.58,3.08,28.23-4.66,64.27-4.14,16.84-9.78,33.65-15.67,47.74Z"/>
    <path class="st3" d="M256.13,98.93c1.12,1.47,2.16,3.52,2.99,6.38-1.7,2.33-3.36,5.24-4.97,8.85-.95-2.99-2.14-6.15-3.75-9.03.44-3.24.79-6.41,1.04-9.52.05.02.09.04.13.05,1.3,1.38,2.42,2.86,3.39,4.37.34-.43.69-.84,1.04-1.24.04.05.09.09.13.14Z"/>
    <path class="st3" d="M254.46,169.58c7.74-36.04,7.43-54.69,4.66-64.27,3.46-4.75,7.09-7.12,10.85-8.13.79,1.87,1.47,3.91,2.02,6.13-3.37.83-7.2,3.62-11.22,12.01,1.2,15.39-1.55,34.85-6.31,54.26Z"/>
    <path class="st3" d="M254.06,278.83c3.28,1.47,4.75,5.31,3.29,8.59l-7.06,15.79c-1.08,2.41-3.45,3.85-5.94,3.85-.89,0-1.79-.18-2.65-.57-3.28-1.46-4.74-5.31-3.28-8.59l7.06-15.79c1.46-3.27,5.31-4.74,8.58-3.28Z"/>
    <path class="st3" d="M250.4,105.13c1.61,2.88,2.8,6.04,3.75,9.03h-.01l-9.56,45.06-1.04-.22c3.1-14.27,4.89-28.17,4.44-39.63.96-4.84,1.78-9.6,2.42-14.24Z"/>
    <path class="st3" d="M251.44,95.61c-.25,3.11-.6,6.28-1.04,9.52-2.64-4.72-6.41-8.67-12.05-9.8.2-2.27.35-4.45.44-6.54,5.5.87,9.65,3.55,12.78,6.87-.04-.01-.08-.03-.13-.05Z"/>
    <path class="st3" d="M238.35,95.33c5.64,1.13,9.41,5.08,12.05,9.8-.64,4.64-1.46,9.4-2.42,14.24-.06-1.34-.13-2.66-.25-3.92-3.18-9.67-6.76-12.76-10.12-13.64.3-2.24.54-4.4.74-6.48Z"/>
    <path class="st3" d="M234.95,95c1.2,0,2.33.11,3.4.33-.2,2.08-.44,4.24-.74,6.48-.9-.24-1.79-.31-2.65-.31h-.01c-13.34,0-19.79,22.79-27.94,51.64-8.04,28.41-18.04,63.77-39.67,91.63l-8.37,10.78-3.1-13.3c-6.85-29.5-20.87-63.7-35.45-69.07-.95-.35-2.13-.67-3.56-.67-2.13,0-4.81.72-8.09,3.15-9.87,7.29-6.07,20.68,1.37,41.86,3.08,8.79,6.27,17.88,7.75,26.71,2.36,14.07,3.35,22.43,4.21,29.81.68,5.78,1.27,10.77,2.4,17.26.4,2.29.8,4.77,1.22,7.42,1.2,7.54,2.58,16.16,4.73,25.14-2.29-.1-4.56-.29-6.8-.59-2.7-11.78-4.12-22.64-5.55-30.86-2.59-14.83-2.38-21.85-6.62-47.1-4.57-27.24-27.32-59.55-6.58-74.88,28.42-21.01,49.78,37.98,57.31,70.35,25.81-33.24,34.44-77.57,44.14-108.59,6.86-21.92,14.24-37.19,28.6-37.19Z"/>
    <path class="st1" d="M232.64,59.92c2.52,3.06,4.27,7.3,5.27,12.69-1.04-.08-2.02-.11-2.94-.11h-.03c-5.07,0-11,.91-17.07,3.76,1.03-8.06,1.58-15.46,1.63-22.16,5.8.23,10.13,2.15,13.14,5.82Z"/>
    <path class="st3" d="M254.14,114.16c2.77,27.39-8.84,70.74-21.35,100.65l11.79-55.59,9.56-45.06Z"/>
    <path class="st3" d="M209.7,339.62c15.05,5.36,32.47.35,44.53-6.38l7.81,2.86c-18.82,12.46-57.48,24.34-79.74-11.99,1.88-1.08,3.72-2.23,5.52-3.43,5.79,9.46,13.1,15.82,21.88,18.94Z"/>
    <path class="st3" d="M143.8,370.41c24.36,32.42,57.46,52.55,102.37,39.58,54.89-15.84,85.07-87.07,99.35-150.35,16.93-74.97,2.74-86.93-11.62-87.59l-2.92,3.38c1.58-26.86-5.4-47.25-32.25-44-.85-19.44-6.73-33.55-21.05-34.78-2.62-.22-5.19-.15-7.71.53-.93-2.17-2.01-4.1-3.27-5.79,3.47-1.19,7.29-1.57,11.54-1.21,8.46.72,15.35,5.07,19.94,12.57,3.39,5.55,5.58,12.84,6.57,21.84,10.13.13,18.11,3.68,23.79,10.59,6.12,7.46,8.81,18.15,9.16,30.74,6.09,1,11,3.9,14.62,8.65,10.04,13.18,9.89,40.66-.46,86.5-11.29,50.01-39.8,136.67-103.88,155.17-9.89,2.85-19.48,4.28-28.74,4.28-30.51,0-57.54-15.46-80.64-46.21-8.89-12.03-14.52-25.44-18.33-38.3,2.32.35,4.66.61,7.02.78,3.6,11.44,8.75,23.11,16.51,33.62Z"/>
    <path class="st3" d="M208.57,108.37c.95-1.88,2.65-5.22,5.28-8.63-2.4,11.43-5.32,22.41-8.32,32.2-3.07,10.03-6.22,18.82-9,25.61-.95,2.33-3.1,3.8-5.45,4.01,1.17-4.04,2.31-8.04,3.42-11.96,4.63-16.39,8.63-30.53,14.07-41.23Z"/>
    <path class="st3" d="M234.95,95c-14.36,0-21.74,15.27-28.6,37.19l-.82-.25c3-9.79,5.92-20.77,8.32-32.2,4.28-5.52,11.02-11.24,21.1-11.24h.01c1.35,0,2.62.1,3.83.29-.09,2.09-.24,4.27-.44,6.54-1.07-.22-2.2-.33-3.4-.33Z"/>
    <path class="st3" d="M208.63,285.09c-.95,2.14-2.92,3.5-5.08,3.79,2.79-3.33,5.52-6.9,8.17-10.71l-3.09,6.92Z"/>
    <path class="st3" d="M212.41,260.72c3.27,1.46,4.74,5.31,3.28,8.58l-3.97,8.87c-2.65,3.81-5.38,7.38-8.17,10.71-.28.04-.57.06-.86.06-.88,0-1.79-.18-2.65-.56-3.27-1.47-4.74-5.31-3.28-8.59l7.06-15.79c1.46-3.28,5.31-4.75,8.59-3.28Z"/>
    <path class="st3" d="M176.45,312.45c1.88-1.1,3.74-2.28,5.57-3.55,1.72,4.35,3.66,8.27,5.8,11.78-1.8,1.2-3.64,2.35-5.52,3.43-2.11-3.44-4.07-7.31-5.85-11.66Z"/>
    <path class="st3" d="M182.02,308.9c-1.83,1.27-3.69,2.45-5.57,3.55-1.13-2.74-2.19-5.67-3.16-8.81l7.84,2.87c.29.8.58,1.61.89,2.39Z"/>
    <path class="st3" d="M176.45,312.45c1.78,4.35,3.74,8.22,5.85,11.66-1.88,1.08-3.8,2.1-5.75,3.05-2.14-3.54-4.09-7.42-5.85-11.62,1.94-.94,3.86-1.97,5.75-3.09Z"/>
    <path class="st3" d="M173.29,303.64c.97,3.14,2.03,6.07,3.16,8.81-1.89,1.12-3.81,2.15-5.75,3.09-1.31-3.15-2.53-6.46-3.62-9.97-1.07-3.42.84-7.07,4.27-8.14s7.07.85,8.14,4.28c.52,1.65,1.07,3.24,1.64,4.8l-7.84-2.87Z"/>
    <path class="st1" d="M206.46,48.94c.4,11.36-1,24.95-3.52,38.99-3.04,3.57-5.96,7.91-8.64,13.19-6.14,12.09-10.34,26.94-15.2,44.12-3.63,12.85-7.49,26.49-12.44,39.77-10.3-21.08-22.17-33.86-36.21-39.04-13.04-4.8-26.87-2.54-38.92,6.36-3.11,2.3-6.38,5.3-9.25,9.15l-.61-.46c21.5-27.81,31.47-63.07,39.48-91.4,8.16-28.85,14.61-51.63,27.95-51.64h0c4.06,0,8.73,1.68,12.77,13.95,2.41,26.36-9.11,68.58-20.93,96.86-1.39,3.31.17,7.12,3.49,8.5,3.31,1.39,7.12-.17,8.5-3.49,12.68-30.33,24.23-73.25,21.98-101.99,6.25-13.06,12.07-12.57,16.36-12.2,4.35.38,7.51,2.41,9.96,6.41,3.1,5.07,4.71,12.51,5.15,21.41-.03.41-.02.84.03,1.27.01.08.02.16.04.24Z"/>
    <path class="st3" d="M189.9,401.27c16.56,7.3,34.88,8.13,54.47,2.48,23.37-6.75,43.93-25.06,61.09-54.43,14.02-23.97,25.68-55.48,33.72-91.11,11.44-50.64,7.84-69.15,2.8-75.76-1.26-1.65-2.74-2.72-4.69-3.32-2,24.81-10.52,54.34-19.12,80.65-1.12,3.41-4.79,5.27-8.2,4.16-3.41-1.12-5.27-4.79-4.16-8.2,1.6-4.88,3.08-9.6,4.48-14.19l1.7,16.21c7.4-22.63,17.41-55.67,18.99-82.33l2.92-3.38c14.36.66,28.55,12.62,11.62,87.59-14.28,63.28-44.46,134.51-99.35,150.35-44.91,12.97-78.01-7.16-102.37-39.58-7.76-10.51-12.91-22.18-16.51-33.62,2.02.14,4.05.21,6.1.21.25,0,.51-.01.77-.01,3.37,10.15,8.05,20.32,14.87,29.56,12.44,16.56,26.2,28.26,40.87,34.72Z"/>
    <path class="st3" d="M133.39,337c-2.05,0-4.08-.07-6.1-.21-1.44-4.58-2.63-9.11-3.64-13.52,2.24.3,4.51.49,6.8.59,1.03,4.32,2.25,8.72,3.71,13.13-.26,0-.52.01-.77.01Z"/>
    <path class="st3" d="M127.29,336.79c-2.36-.17-4.7-.43-7.02-.78-1.41-4.78-2.58-9.48-3.56-14.01,2.29.53,4.6.95,6.94,1.27,1.01,4.41,2.2,8.94,3.64,13.52Z"/>
    <path class="st3" d="M206.35,132.19c-9.7,31.02-18.33,75.35-44.14,108.59-7.53-32.37-28.89-91.36-57.31-70.35-20.74,15.33,2.01,47.64,6.58,74.88,4.24,25.25,4.03,32.27,6.62,47.1,1.43,8.22,2.85,19.08,5.55,30.86-2.34-.32-4.65-.74-6.94-1.27-1.68-7.76-2.84-15-3.83-21.23-.41-2.59-.8-5.01-1.18-7.24-1.2-6.84-1.8-12-2.51-17.97-.85-7.23-1.81-15.42-4.12-29.18-1.3-7.73-4.3-16.28-7.2-24.56-7.09-20.2-15.13-43.1,3.17-56.62,9.71-7.18,18.35-6.26,23.88-4.21,20.44,7.53,33.76,43.41,39.98,64.57,12.46-19.92,19.95-42.59,26.18-64,2.35-.21,4.5-1.68,5.45-4.01,2.78-6.79,5.93-15.58,9-25.61l.82.25Z"/>
    <path class="st1" d="M202.69,288.94c.29,0,.58-.02.86-.06,2.16-.29,4.13-1.65,5.08-3.79l3.09-6.92,3.97-8.87c1.46-3.27-.01-7.12-3.28-8.58-3.28-1.47-7.13,0-8.59,3.28l-7.06,15.79c-1.46,3.28.01,7.12,3.28,8.59.86.38,1.77.56,2.65.56ZM254.23,333.24c-12.06,6.73-29.48,11.74-44.53,6.38-8.78-3.12-16.09-9.48-21.88-18.94-2.14-3.51-4.08-7.43-5.8-11.78-.31-.78-.6-1.59-.89-2.39-.57-1.56-1.12-3.15-1.64-4.8-1.07-3.43-4.71-5.35-8.14-4.28s-5.34,4.72-4.27,8.14c1.09,3.51,2.31,6.82,3.62,9.97,1.76,4.2,3.71,8.08,5.85,11.62,7.37,12.21,16.99,20.51,28.79,24.71,5.95,2.12,12.08,3.03,18.16,3.03,15.79,0,31.22-6.16,42.13-13.38,2.99-1.98,3.81-6.01,1.83-9-1.98-3-6.01-3.82-9-1.84-1.32.87-2.74,1.73-4.23,2.56ZM237.61,101.81c3.36.88,6.94,3.97,10.12,13.64.12,1.26.19,2.58.25,3.92.45,11.46-1.34,25.36-4.44,39.63-4.06,18.71-10.36,38.04-16.74,53.31-1.39,3.31.18,7.12,3.49,8.5,3.31,1.39,7.12-.18,8.5-3.49,5.89-14.09,11.53-30.9,15.67-47.74,4.76-19.41,7.51-38.87,6.31-54.26,4.02-8.39,7.85-11.18,11.22-12.01,1.88-.46,3.61-.31,5.14-.18,4.35.37,7.52,2.41,9.96,6.4,3.1,5.08,4.71,12.51,5.15,21.42-.03.41-.02.84.03,1.27,0,.08.03.16.04.24,1.05,29.87-10.29,75.11-21.96,103.69-1.36,3.32.24,7.12,3.56,8.47,3.32,1.36,7.12-.23,8.48-3.56,1.88-4.62,3.95-10.18,6.04-16.41,5.15-15.33,10.48-34.79,13.8-54.75.11-.69.21-1.36.32-2.04,1.79-11.26,2.73-21.36,2.8-30.25,5.81.24,10.13,2.16,13.14,5.82,5.89,7.18,7.6,20.73,5.15,40.49-1.91,15.44-6.36,34.67-13.35,57.63-1.4,4.59-2.88,9.31-4.48,14.19-1.11,3.41.75,7.08,4.16,8.2,3.41,1.11,7.08-.75,8.2-4.16,8.6-26.31,17.12-55.84,19.12-80.65,1.95.6,3.43,1.67,4.69,3.32,5.04,6.61,8.64,25.12-2.8,75.76-8.04,35.63-19.7,67.14-33.72,91.11-17.16,29.37-37.72,47.68-61.09,54.43-19.59,5.65-37.91,4.82-54.47-2.48-14.67-6.46-28.43-18.16-40.87-34.72-6.82-9.24-11.5-19.41-14.87-29.56-1.46-4.41-2.68-8.81-3.71-13.13-2.15-8.98-3.53-17.6-4.73-25.14-.42-2.65-.82-5.13-1.22-7.42-1.13-6.49-1.72-11.48-2.4-17.26-.86-7.38-1.85-15.74-4.21-29.81-1.48-8.83-4.67-17.92-7.75-26.71-7.44-21.18-11.24-34.57-1.37-41.86,3.28-2.43,5.96-3.15,8.09-3.15,1.43,0,2.61.32,3.56.67,14.58,5.37,28.6,39.57,35.45,69.07l3.1,13.3,8.37-10.78c21.63-27.86,31.63-63.22,39.67-91.63,8.15-28.85,14.6-51.64,27.94-51.64h.01c.86,0,1.75.07,2.65.31ZM241.7,306.49c.86.39,1.76.57,2.65.57,2.49,0,4.86-1.44,5.94-3.85l7.06-15.79c1.46-3.28-.01-7.12-3.29-8.59-3.27-1.46-7.12.01-8.58,3.28l-7.06,15.79c-1.46,3.28,0,7.13,3.28,8.59Z"/>
    <path class="st3" d="M63.18,283.03c11.03,14.68,23.1,25.53,35.91,32.31.9,5,1.96,10.34,3.31,15.88-18.12-7.05-34.71-20.53-49.65-40.42-17.85-24.17-22.58-53.89-25.72-73.55-.41-2.59-.8-5.01-1.19-7.24-1.19-6.84-1.8-12-2.5-17.97-.85-7.23-1.81-15.42-4.12-29.17-1.3-7.74-4.3-16.29-7.2-24.56-7.09-20.21-15.13-43.11,3.17-56.63,9.71-7.17,18.34-6.25,23.88-4.21,20.44,7.53,33.76,43.41,39.98,64.57,14.81-23.67,22.6-51.23,29.59-75.96,4.64-16.38,8.64-30.53,14.07-41.23,2.5-4.91,10.09-19.86,26.38-19.87h.02c10,0,16.17,5.58,20,11.53,6.07-7.59,13.56-10.68,23.28-9.85,8.46.73,15.35,5.08,19.94,12.58,3.39,5.54,5.58,12.84,6.57,21.83,10.13.13,18.11,3.68,23.79,10.59,5.07,6.19,7.79,14.6,8.76,24.46-4.84-2.29-9.57-3.22-13.54-3.51-1-5.39-2.75-9.63-5.27-12.69-3.01-3.67-7.34-5.59-13.14-5.82-.05,6.7-.6,14.1-1.63,22.16-5.02,2.36-10.14,6.05-14.93,11.67,2.52-14.04,3.92-27.63,3.52-38.99-.02-.08-.03-.16-.04-.24-.05-.43-.06-.86-.03-1.27-.44-8.9-2.05-16.34-5.15-21.41-2.45-4-5.61-6.03-9.96-6.41-4.29-.37-10.11-.86-16.36,12.2,2.25,28.74-9.3,71.66-21.98,101.99-1.38,3.32-5.19,4.88-8.5,3.49-3.32-1.38-4.88-5.19-3.49-8.5,11.82-28.28,23.34-70.5,20.93-96.86-4.04-12.27-8.71-13.95-12.77-13.95h0c-13.34.01-19.79,22.79-27.95,51.64-8.01,28.33-17.98,63.59-39.48,91.4-.06.08-.12.15-.18.23l-8.38,10.79-3.09-13.3c-6.85-29.5-20.87-63.7-35.45-69.07-.95-.36-2.13-.68-3.56-.68-2.13,0-4.81.72-8.09,3.15-9.87,7.29-6.07,20.68,1.37,41.86,3.08,8.79,6.27,17.88,7.75,26.72,2.36,14.06,3.35,22.42,4.21,29.8.68,5.78,1.27,10.77,2.4,17.26.4,2.29.8,4.77,1.22,7.42,3.11,19.52,7.37,46.25,23.31,67.83Z"/>
    <path class="st1" d="M82.28,161.48c-5.44,7.3-9.46,17.66-8.25,32.07.95,11.38,4.91,22.66,8.74,33.57,2.68,7.64,5.45,15.53,6.52,21.91,2.25,13.37,3.18,21.35,4.01,28.39.7,5.96,1.36,11.58,2.63,18.85.38,2.16.75,4.51,1.15,7.02.59,3.71,1.24,7.76,2.01,12.05-12.81-6.78-24.88-17.63-35.91-32.31-15.94-21.58-20.2-48.31-23.31-67.83-.42-2.65-.82-5.13-1.22-7.42-1.13-6.49-1.72-11.48-2.4-17.26-.86-7.38-1.85-15.74-4.21-29.8-1.48-8.84-4.67-17.93-7.75-26.72-7.44-21.18-11.24-34.57-1.37-41.86,3.28-2.43,5.96-3.15,8.09-3.15,1.43,0,2.61.32,3.56.68,14.58,5.37,28.6,39.57,35.45,69.07l3.09,13.3,8.38-10.79c.06-.08.12-.15.18-.23l.61.46Z"/>
  </g>
</svg>