<?xml version="1.0" encoding="UTF-8"?>
<svg xmlns="http://www.w3.org/2000/svg" viewBox="0 0 1496.19 448.12">
  <defs>
    <style>
      .cls-1 {
        fill: #f6a85a;
      }

      .cls-2 {
        fill: #2e2e2e;
      }

      .cls-3 {
        fill: #2e2e2e;
      }
    </style>
  </defs>
  <g id="Vrstva_1" data-name="Vrstva 1">
    <g>
      <path class="cls-2" d="M487.6,402.72h-22v-58.6c0-9.6-1.7-16.7-5.1-21.3-3.4-4.6-8.3-6.9-14.7-6.9-3.07,0-6.13.6-9.2,1.8-3.07,1.2-5.97,2.9-8.7,5.1-2.73,2.2-5.17,4.8-7.3,7.8-2.13,3-3.73,6.3-4.8,9.9v62.2h-22v-146h22v62.4c4-7.2,9.43-12.8,16.3-16.8,6.87-4,14.37-6,22.5-6,6.53,0,11.9,1.17,16.1,3.5,4.2,2.33,7.57,5.43,10.1,9.3,2.53,3.87,4.3,8.37,5.3,13.5,1,5.13,1.5,10.57,1.5,16.3v63.8Z"/>
      <path class="cls-2" d="M536,404.72c-5.07,0-9.77-.83-14.1-2.5-4.33-1.67-8.07-3.97-11.2-6.9-3.13-2.93-5.6-6.4-7.4-10.4s-2.7-8.33-2.7-13c0-4.93,1.07-9.4,3.2-13.4,2.13-4,5.17-7.47,9.1-10.4,3.93-2.93,8.6-5.2,14-6.8,5.4-1.6,11.37-2.4,17.9-2.4,4.93,0,9.8.43,14.6,1.3,4.8.87,9.13,2.03,13,3.5v-7.2c0-7.73-2.2-13.77-6.6-18.1-4.4-4.33-10.73-6.5-19-6.5-5.6,0-11.1,1.03-16.5,3.1-5.4,2.07-10.97,5.03-16.7,8.9l-6.8-14c13.47-9.07,27.47-13.6,42-13.6s25.6,3.67,33.6,11c8,7.33,12,17.87,12,31.6v37.8c0,4.67,1.93,7.07,5.8,7.2v18.8c-2.13.4-3.97.67-5.5.8-1.53.13-3.03.2-4.5.2-4.27,0-7.57-1.07-9.9-3.2-2.33-2.13-3.77-4.87-4.3-8.2l-.6-6.6c-4.67,6.13-10.43,10.83-17.3,14.1-6.87,3.27-14.23,4.9-22.1,4.9ZM542,388.52c5.33,0,10.37-.97,15.1-2.9,4.73-1.93,8.43-4.63,11.1-8.1,2.8-2.4,4.2-4.93,4.2-7.6v-13.8c-3.73-1.47-7.7-2.6-11.9-3.4s-8.3-1.2-12.3-1.2c-7.87,0-14.3,1.7-19.3,5.1-5,3.4-7.5,7.9-7.5,13.5,0,5.2,1.93,9.57,5.8,13.1,3.87,3.53,8.8,5.3,14.8,5.3Z"/>
      <path class="cls-2" d="M709.8,402.72h-22v-58.6c0-9.87-1.57-17.03-4.7-21.5-3.13-4.47-7.77-6.7-13.9-6.7-3.2,0-6.4.6-9.6,1.8s-6.2,2.9-9,5.1c-2.8,2.2-5.3,4.8-7.5,7.8s-3.9,6.3-5.1,9.9v62.2h-22v-104.6h20v21c4-7.07,9.8-12.63,17.4-16.7,7.6-4.07,16-6.1,25.2-6.1,6.27,0,11.4,1.13,15.4,3.4,4,2.27,7.17,5.37,9.5,9.3,2.33,3.93,3.97,8.47,4.9,13.6.93,5.13,1.4,10.57,1.4,16.3v63.8Z"/>
      <path class="cls-2" d="M773,404.72c-7.07,0-13.6-1.43-19.6-4.3-6-2.87-11.2-6.77-15.6-11.7-4.4-4.93-7.83-10.7-10.3-17.3-2.47-6.6-3.7-13.7-3.7-21.3s1.17-14.23,3.5-20.7c2.33-6.47,5.6-12.17,9.8-17.1,4.2-4.93,9.13-8.83,14.8-11.7,5.67-2.87,11.9-4.3,18.7-4.3,8.4,0,15.8,2.04,22.2,6.1,6.4,4.07,11.4,9.23,15,15.5v-61.2h22v120c0,2.53.43,4.33,1.3,5.4.87,1.07,2.43,1.67,4.7,1.8v18.8c-2.27.4-4.1.67-5.5.8-1.4.13-2.57.2-3.5.2-4.4,0-8-1.13-10.8-3.4-2.8-2.27-4.33-5.2-4.6-8.8l-.4-7.8c-3.87,6.53-9.13,11.67-15.8,15.4-6.67,3.73-14.07,5.6-22.2,5.6ZM778.4,385.92c3.2,0,6.4-.53,9.6-1.6,3.2-1.07,6.13-2.53,8.8-4.4,2.67-1.87,4.97-4.07,6.9-6.6,1.93-2.53,3.3-5.27,4.1-8.2v-27.4c-1.2-3.33-2.9-6.4-5.1-9.2s-4.7-5.2-7.5-7.2-5.77-3.53-8.9-4.6c-3.13-1.07-6.3-1.6-9.5-1.6-4.4,0-8.43,1-12.1,3-3.67,2-6.83,4.67-9.5,8-2.67,3.33-4.77,7.13-6.3,11.4-1.53,4.27-2.3,8.67-2.3,13.2,0,4.8.83,9.33,2.5,13.6,1.67,4.27,3.96,8,6.9,11.2,2.93,3.2,6.3,5.73,10.1,7.6,3.8,1.87,7.9,2.8,12.3,2.8Z"/>
      <path class="cls-2" d="M856.4,427.32c2,.4,3.97.73,5.9,1,1.93.27,3.5.4,4.7.4,1.73,0,3.23-.37,4.5-1.1,1.27-.73,2.57-2.04,3.9-3.9,1.33-1.87,2.7-4.5,4.1-7.9,1.4-3.4,3.03-7.77,4.9-13.1l-43-104.6h22.6l32.4,85.2,28.8-85.2h20.8l-47.4,128.8c-2.13,6-5.83,11.03-11.1,15.1-5.27,4.07-12.04,6.1-20.3,6.1-1.6,0-3.27-.1-5-.3-1.73-.2-3.67-.63-5.8-1.3v-19.2Z"/>
      <path class="cls-1" d="M1051,402.72h-22v-58.6c0-9.6-1.7-16.7-5.1-21.3-3.4-4.6-8.3-6.9-14.7-6.9-3.07,0-6.13.6-9.2,1.8-3.07,1.2-5.97,2.9-8.7,5.1-2.73,2.2-5.17,4.8-7.3,7.8-2.13,3-3.73,6.3-4.8,9.9v62.2h-22v-146h22v62.4c4-7.2,9.43-12.8,16.3-16.8,6.87-4,14.37-6,22.5-6,6.53,0,11.9,1.17,16.1,3.5,4.2,2.33,7.57,5.43,10.1,9.3,2.53,3.87,4.3,8.37,5.3,13.5,1,5.13,1.5,10.57,1.5,16.3v63.8Z"/>
      <path class="cls-1" d="M1099.39,404.72c-5.07,0-9.77-.83-14.1-2.5-4.33-1.67-8.07-3.97-11.2-6.9-3.13-2.93-5.6-6.4-7.4-10.4s-2.7-8.33-2.7-13c0-4.93,1.07-9.4,3.2-13.4,2.13-4,5.17-7.47,9.1-10.4,3.93-2.93,8.6-5.2,14-6.8,5.4-1.6,11.37-2.4,17.9-2.4,4.93,0,9.8.43,14.6,1.3,4.8.87,9.13,2.03,13,3.5v-7.2c0-7.73-2.2-13.77-6.6-18.1-4.4-4.33-10.73-6.5-19-6.5-5.6,0-11.1,1.03-16.5,3.1-5.4,2.07-10.97,5.03-16.7,8.9l-6.8-14c13.47-9.07,27.47-13.6,42-13.6s25.6,3.67,33.6,11c8,7.33,12,17.87,12,31.6v37.8c0,4.67,1.93,7.07,5.8,7.2v18.8c-2.13.4-3.97.67-5.5.8-1.53.13-3.03.2-4.5.2-4.27,0-7.57-1.07-9.9-3.2-2.33-2.13-3.77-4.87-4.3-8.2l-.6-6.6c-4.67,6.13-10.43,10.83-17.3,14.1-6.87,3.27-14.23,4.9-22.1,4.9ZM1105.39,388.52c5.33,0,10.37-.97,15.1-2.9,4.73-1.93,8.43-4.63,11.1-8.1,2.8-2.4,4.2-4.93,4.2-7.6v-13.8c-3.73-1.47-7.7-2.6-11.9-3.4s-8.3-1.2-12.3-1.2c-7.87,0-14.3,1.7-19.3,5.1-5,3.4-7.5,7.9-7.5,13.5,0,5.2,1.93,9.57,5.8,13.1,3.87,3.53,8.8,5.3,14.8,5.3Z"/>
      <path class="cls-1" d="M1273.19,402.72h-22v-58.6c0-9.87-1.57-17.03-4.7-21.5-3.13-4.47-7.77-6.7-13.9-6.7-3.2,0-6.4.6-9.6,1.8s-6.2,2.9-9,5.1c-2.8,2.2-5.3,4.8-7.5,7.8s-3.9,6.3-5.1,9.9v62.2h-22v-104.6h20v21c4-7.07,9.8-12.63,17.4-16.7,7.6-4.07,16-6.1,25.2-6.1,6.27,0,11.4,1.13,15.4,3.4,4,2.27,7.17,5.37,9.5,9.3,2.33,3.93,3.97,8.47,4.9,13.6.93,5.13,1.4,10.57,1.4,16.3v63.8Z"/>
      <path class="cls-1" d="M1336.39,404.72c-7.07,0-13.6-1.43-19.6-4.3-6-2.87-11.2-6.77-15.6-11.7-4.4-4.93-7.83-10.7-10.3-17.3-2.47-6.6-3.7-13.7-3.7-21.3s1.17-14.23,3.5-20.7c2.33-6.47,5.6-12.17,9.8-17.1,4.2-4.93,9.13-8.83,14.8-11.7,5.67-2.87,11.9-4.3,18.7-4.3,8.4,0,15.8,2.04,22.2,6.1,6.4,4.07,11.4,9.23,15,15.5v-61.2h22v120c0,2.53.43,4.33,1.3,5.4.87,1.07,2.43,1.67,4.7,1.8v18.8c-2.27.4-4.1.67-5.5.8-1.4.13-2.57.2-3.5.2-4.4,0-8-1.13-10.8-3.4-2.8-2.27-4.33-5.2-4.6-8.8l-.4-7.8c-3.87,6.53-9.13,11.67-15.8,15.4-6.67,3.73-14.07,5.6-22.2,5.6ZM1341.79,385.92c3.2,0,6.4-.53,9.6-1.6,3.2-1.07,6.13-2.53,8.8-4.4,2.67-1.87,4.97-4.07,6.9-6.6,1.93-2.53,3.3-5.27,4.1-8.2v-27.4c-1.2-3.33-2.9-6.4-5.1-9.2s-4.7-5.2-7.5-7.2-5.77-3.53-8.9-4.6c-3.13-1.07-6.3-1.6-9.5-1.6-4.4,0-8.43,1-12.1,3-3.67,2-6.83,4.67-9.5,8-2.67,3.33-4.77,7.13-6.3,11.4-1.53,4.27-2.3,8.67-2.3,13.2,0,4.8.83,9.33,2.5,13.6,1.67,4.27,3.96,8,6.9,11.2,2.93,3.2,6.3,5.73,10.1,7.6,3.8,1.87,7.9,2.8,12.3,2.8Z"/>
      <path class="cls-1" d="M1454.19,404.72c-8.4,0-16.77-1.37-25.1-4.1-8.33-2.73-15.5-6.63-21.5-11.7l8.8-14c6.27,4.53,12.46,7.97,18.6,10.3,6.13,2.33,12.4,3.5,18.8,3.5s11.7-1.27,15.5-3.8c3.8-2.53,5.7-6.13,5.7-10.8,0-4.4-2.13-7.6-6.4-9.6-4.27-2-10.93-4.2-20-6.6-6.53-1.73-12.13-3.4-16.8-5-4.67-1.6-8.47-3.47-11.4-5.6-2.93-2.13-5.07-4.6-6.4-7.4-1.33-2.8-2-6.2-2-10.2,0-5.33,1.03-10.07,3.1-14.2,2.07-4.13,4.93-7.63,8.6-10.5,3.67-2.87,7.97-5.03,12.9-6.5,4.93-1.47,10.27-2.2,16-2.2,7.87,0,15.2,1.2,22,3.6,6.8,2.4,12.87,5.87,18.2,10.4l-9.4,13.2c-9.73-7.73-20.07-11.6-31-11.6-5.6,0-10.3,1.17-14.1,3.5-3.8,2.33-5.7,6.03-5.7,11.1,0,2.13.4,3.93,1.2,5.4.8,1.47,2.1,2.73,3.9,3.8,1.8,1.07,4.13,2.03,7,2.9,2.87.87,6.43,1.83,10.7,2.9,7.07,1.73,13.17,3.47,18.3,5.2,5.13,1.73,9.37,3.77,12.7,6.1,3.33,2.33,5.8,5.07,7.4,8.2,1.6,3.13,2.4,6.9,2.4,11.3,0,10-3.77,17.9-11.3,23.7-7.54,5.8-17.77,8.7-30.7,8.7Z"/>
    </g>
    <g>
      <path class="cls-2" d="M428.79,119.55c2.77.84,2.77,4.76,0,5.6l-11.28,3.44c-.93.28-1.67,1.01-1.95,1.95l-3.43,11.27c-.85,2.78-4.77,2.78-5.61,0l-3.43-11.27c-.29-.94-1.02-1.67-1.95-1.95l-11.28-3.44c-2.77-.84-2.77-4.76,0-5.6l11.28-3.44c.93-.29,1.66-1.02,1.95-1.95l3.43-11.28c.84-2.77,4.76-2.77,5.61,0l3.43,11.28c.28.93,1.02,1.66,1.95,1.95l11.28,3.44Z"/>
      <path class="cls-2" d="M400.72,53.38c4.74,1.45,4.74,8.16,0,9.61l-19.32,5.88c-1.6.48-2.84,1.73-3.33,3.34l-5.88,19.31c-1.45,4.74-8.16,4.74-9.61,0l-5.87-19.31c-.49-1.61-1.74-2.86-3.34-3.34l-19.32-5.88c-4.74-1.45-4.74-8.16,0-9.61l19.32-5.88c1.6-.48,2.85-1.73,3.34-3.34l5.87-19.31c1.45-4.74,8.16-4.74,9.61,0l5.88,19.31c.49,1.61,1.73,2.86,3.33,3.34l19.32,5.88Z"/>
    </g>
    <g>
      <path class="cls-3" d="M348.57,169.85c10.04,13.17,9.89,40.66-.46,86.5-11.29,50.01-39.79,136.66-103.88,155.16-9.89,2.86-19.48,4.28-28.74,4.28-30.51,0-57.54-15.46-80.64-46.2-8.89-12.04-14.52-25.45-18.33-38.31,2.32.36,4.66.62,7.02.78,3.6,11.44,8.75,23.12,16.51,33.62,24.36,32.43,57.46,52.56,102.38,39.59,54.88-15.85,85.06-87.07,99.34-150.35,16.93-74.98,2.74-86.93-11.62-87.6l-2.92,3.39c1.58-26.87-5.4-47.26-32.25-44-.85-19.44-6.73-33.56-21.05-34.78-2.62-.22-5.19-.15-7.71.52-.93-2.16-2.01-4.09-3.27-5.79,3.47-1.18,7.29-1.57,11.54-1.21,8.46.73,15.35,5.08,19.94,12.58,3.39,5.54,5.58,12.84,6.57,21.84,10.13.13,18.11,3.67,23.79,10.59,6.12,7.45,8.82,18.14,9.16,30.73,6.09,1.01,11,3.91,14.62,8.66Z"/>
      <path class="cls-3" d="M330.15,167.32c14.36.67,28.55,12.62,11.62,87.6-14.28,63.28-44.46,134.5-99.34,150.35-44.92,12.97-78.02-7.16-102.38-39.59-7.76-10.5-12.91-22.18-16.51-33.62,2.02.14,4.05.22,6.1.22.25,0,.52-.02.77-.02,3.37,10.15,8.05,20.33,14.87,29.56,12.44,16.57,26.2,28.27,40.87,34.73,16.56,7.3,34.88,8.13,54.47,2.47,23.37-6.75,43.93-25.05,61.09-54.42,14.02-23.98,25.68-55.48,33.72-91.12,11.44-50.64,7.84-69.15,2.8-75.75-1.26-1.65-2.74-2.72-4.69-3.33-2,24.81-10.52,54.35-19.12,80.65-1.12,3.42-4.79,5.28-8.2,4.16-3.41-1.11-5.27-4.78-4.16-8.2,1.6-4.88,3.09-9.6,4.48-14.18l1.7,16.2c7.4-22.63,17.41-55.66,18.99-82.32l2.92-3.39Z"/>
      <path class="cls-1" d="M338.23,177.73c5.04,6.6,8.64,25.11-2.8,75.75-8.04,35.64-19.7,67.14-33.72,91.12-17.16,29.37-37.72,47.67-61.09,54.42-19.59,5.66-37.91,4.83-54.47-2.47-14.67-6.46-28.43-18.16-40.87-34.73-6.82-9.23-11.5-19.41-14.87-29.56-1.46-4.41-2.68-8.81-3.71-13.13-2.15-8.98-3.53-17.59-4.73-25.13-.42-2.65-.82-5.14-1.22-7.43-1.13-6.48-1.72-11.48-2.4-17.26-.86-7.37-1.85-15.73-4.21-29.8-1.48-8.84-4.67-17.93-7.75-26.72-7.44-21.18-11.24-34.57-1.37-41.86,3.28-2.42,5.96-3.15,8.09-3.15,1.43,0,2.61.33,3.56.68,14.58,5.37,28.6,39.57,35.46,69.07l3.09,13.3,8.37-10.79c21.63-27.85,31.63-63.21,39.67-91.63,8.15-28.85,14.6-51.63,27.94-51.64h.01c.86,0,1.75.08,2.66.31,3.35.88,6.93,3.98,10.11,13.64.12,1.27.19,2.58.25,3.92.45,11.46-1.34,25.36-4.44,39.63-4.06,18.71-10.36,38.04-16.74,53.31-1.39,3.31.18,7.12,3.49,8.51,3.31,1.38,7.12-.18,8.5-3.49,5.89-14.1,11.54-30.9,15.67-47.74,4.76-19.42,7.51-38.87,6.31-54.26,4.02-8.39,7.85-11.18,11.22-12.01,1.88-.46,3.61-.32,5.14-.18,4.35.37,7.52,2.4,9.96,6.4,3.1,5.07,4.71,12.51,5.15,21.41-.03.42-.02.84.03,1.27.01.08.03.16.04.24,1.05,29.87-10.29,75.12-21.96,103.69-1.36,3.33.24,7.12,3.56,8.48,3.32,1.35,7.12-.24,8.48-3.56,1.88-4.62,3.95-10.18,6.04-16.42,5.15-15.33,10.48-34.78,13.8-54.75.11-.69.21-1.36.32-2.04,1.79-11.26,2.73-21.36,2.8-30.24,5.81.23,10.13,2.16,13.14,5.82,5.89,7.17,7.6,20.73,5.15,40.48-1.91,15.44-6.36,34.67-13.35,57.64-1.39,4.58-2.88,9.3-4.48,14.18-1.11,3.42.75,7.09,4.16,8.2,3.41,1.12,7.08-.74,8.2-4.16,8.6-26.3,17.12-55.84,19.12-80.65,1.95.61,3.43,1.68,4.69,3.33Z"/>
      <path class="cls-3" d="M294.98,126.71c26.85-3.26,33.83,17.13,32.25,44l-7.34,8.48c2.45-19.75.74-33.31-5.15-40.48-3.01-3.66-7.33-5.59-13.14-5.82-.07,8.88-1.01,18.98-2.8,30.24l-3.82-36.42Z"/>
      <path class="cls-3" d="M319.89,179.19l7.34-8.48c-1.58,26.66-11.59,59.69-18.99,82.32l-1.7-16.2c6.99-22.97,11.44-42.2,13.35-57.64Z"/>
      <path class="cls-3" d="M294.98,126.71l3.82,36.42c-.11.68-.21,1.35-.32,2.04-3.32,19.97-8.65,39.42-13.8,54.75l-12.06,13.96c10.95-26.81,23.77-74.51,22.36-107.17Z"/>
      <path class="cls-3" d="M294.98,126.71c1.41,32.66-11.41,80.36-22.36,107.17l12.06-13.96c-2.09,6.24-4.16,11.8-6.04,16.42-1.36,3.32-5.16,4.91-8.48,3.56-3.32-1.36-4.92-5.15-3.56-8.48,11.67-28.57,23.01-73.82,21.96-103.69-.01-.08-.03-.16-.04-.24-.05-.43-.06-.85-.03-1.27-.44-8.9-2.05-16.34-5.15-21.41-2.44-4-5.61-6.03-9.96-6.4-1.53-.14-3.26-.28-5.14.18-.55-2.23-1.23-4.27-2.02-6.14,2.52-.67,5.09-.74,7.71-.52,14.32,1.22,20.2,15.34,21.05,34.78Z"/>
      <path class="cls-3" d="M266.22,92.45c.79,1.87,1.47,3.91,2.02,6.14-3.37.83-7.2,3.62-11.22,12.01,1.2,15.39-1.55,34.84-6.31,54.26,7.74-36.04,7.43-54.69,4.66-64.27,3.46-4.76,7.09-7.12,10.85-8.14Z"/>
      <path class="cls-3" d="M262.95,86.66c1.26,1.7,2.34,3.63,3.27,5.79-3.76,1.02-7.39,3.38-10.85,8.14-.83-2.86-1.87-4.92-2.99-6.38-.04-.05-.09-.09-.13-.15,3.16-3.58,6.69-6.03,10.7-7.4Z"/>
      <path class="cls-3" d="M255.37,100.59c2.77,9.58,3.08,28.23-4.66,64.27-4.13,16.84-9.78,33.64-15.67,47.74-1.38,3.31-5.19,4.87-8.5,3.49-3.31-1.39-4.88-5.2-3.49-8.51,6.38-15.27,12.68-34.6,16.74-53.31l1.05.22-11.79,55.6c12.5-29.92,24.11-73.26,21.34-100.65h.01c1.61-3.62,3.27-6.52,4.97-8.85Z"/>
      <path class="cls-3" d="M252.38,94.21c1.12,1.46,2.16,3.52,2.99,6.38-1.7,2.33-3.36,5.23-4.97,8.84-.95-2.98-2.14-6.14-3.75-9.02.44-3.24.79-6.42,1.04-9.52.05.01.09.03.13.05,1.3,1.37,2.42,2.85,3.39,4.36.34-.43.69-.84,1.04-1.24.04.06.09.1.13.15Z"/>
      <path class="cls-3" d="M250.39,109.44c2.77,27.39-8.84,70.73-21.34,100.65l11.79-55.6,9.55-45.05Z"/>
      <path class="cls-3" d="M250.4,109.43h-.01s-9.55,45.06-9.55,45.06l-1.05-.22c3.1-14.27,4.89-28.17,4.44-39.63.96-4.83,1.78-9.6,2.42-14.23,1.61,2.88,2.8,6.04,3.75,9.02Z"/>
      <path class="cls-3" d="M247.82,90.94s-.08-.04-.13-.05c-.25,3.1-.6,6.28-1.04,9.52-2.64-4.72-6.41-8.67-12.05-9.81.2-2.27.35-4.45.44-6.53,5.5.86,9.65,3.54,12.78,6.87Z"/>
      <path class="cls-2" d="M238.94,46.94c5.08,6.18,7.79,14.59,8.76,24.46-4.84-2.29-9.56-3.23-13.54-3.52-1-5.38-2.75-9.62-5.27-12.69-3.01-3.66-7.34-5.59-13.14-5.82-.05,6.7-.6,14.1-1.63,22.16-5.02,2.36-10.14,6.06-14.93,11.68,2.52-14.05,3.92-27.63,3.52-38.99-.01-.08-.03-.16-.04-.25-.05-.43-.06-.85-.03-1.27-.44-8.9-2.05-16.33-5.15-21.41-2.45-3.99-5.61-6.03-9.96-6.4-4.29-.37-10.11-.87-16.36,12.19,2.25,28.74-9.3,71.67-21.98,102-1.38,3.31-5.19,4.87-8.5,3.49-3.32-1.39-4.88-5.19-3.49-8.51,11.82-28.28,23.34-70.49,20.93-96.86-4.04-12.26-8.71-13.95-12.77-13.95h-.01c-13.34.01-19.79,22.8-27.95,51.64-8.01,28.34-17.97,63.58-39.48,91.4l-.18.24-8.38,10.78-3.09-13.3c-6.85-29.5-20.87-63.7-35.45-69.07-.95-.35-2.13-.67-3.56-.67-2.13,0-4.81.72-8.09,3.14-9.87,7.29-6.07,20.68,1.37,41.87,3.08,8.79,6.27,17.88,7.75,26.71,2.36,14.07,3.35,22.43,4.21,29.81.68,5.78,1.27,10.77,2.4,17.25.4,2.29.8,4.78,1.22,7.43,3.11,19.52,7.37,46.25,23.31,67.83,11.03,14.68,23.1,25.53,35.91,32.31.9,5,1.96,10.33,3.31,15.87-18.12-7.05-34.71-20.53-49.65-40.42-17.85-24.17-22.58-53.88-25.72-73.54-.41-2.59-.8-5.02-1.19-7.25-1.19-6.83-1.79-11.99-2.5-17.97-.85-7.22-1.81-15.42-4.12-29.17-1.3-7.73-4.3-16.29-7.2-24.56-7.09-20.2-15.13-43.1,3.17-56.62,9.71-7.18,18.34-6.26,23.88-4.22,20.44,7.53,33.76,43.42,39.98,64.58,14.81-23.68,22.6-51.24,29.6-75.96,4.63-16.39,8.63-30.54,14.07-41.24,2.49-4.91,10.08-19.86,26.37-19.87h.02c10,0,16.17,5.59,20,11.53,6.07-7.58,13.56-10.68,23.28-9.85,8.46.73,15.35,5.08,19.94,12.58,3.39,5.55,5.58,12.84,6.57,21.84,10.13.13,18.11,3.68,23.79,10.59Z"/>
      <path class="cls-3" d="M246.65,100.41c-.64,4.63-1.46,9.4-2.42,14.23-.06-1.34-.13-2.65-.25-3.92-3.18-9.66-6.76-12.76-10.11-13.64.29-2.23.53-4.39.73-6.48,5.64,1.14,9.41,5.09,12.05,9.81Z"/>
      <path class="cls-3" d="M235.04,84.07c-.09,2.08-.24,4.26-.44,6.53-1.07-.21-2.2-.33-3.4-.33-14.36.01-21.74,15.28-28.6,37.2l-.82-.25c3-9.79,5.92-20.77,8.32-32.2,4.28-5.53,11.02-11.24,21.1-11.25h.01c1.35,0,2.62.11,3.83.3Z"/>
      <path class="cls-3" d="M234.6,90.6c-.2,2.09-.44,4.25-.73,6.48-.91-.23-1.8-.31-2.66-.31h-.01c-13.34.01-19.79,22.79-27.94,51.64-8.04,28.42-18.04,63.78-39.67,91.63l-8.37,10.79-3.09-13.3c-6.86-29.5-20.88-63.7-35.46-69.07-.95-.35-2.13-.68-3.56-.68-2.13,0-4.81.73-8.09,3.15-9.87,7.29-6.07,20.68,1.37,41.86,3.08,8.79,6.27,17.88,7.75,26.72,2.36,14.07,3.35,22.43,4.21,29.8.68,5.78,1.27,10.78,2.4,17.26.4,2.29.8,4.78,1.22,7.43,1.2,7.54,2.58,16.15,4.73,25.13-2.29-.09-4.56-.29-6.8-.59-2.7-11.77-4.12-22.63-5.55-30.85-2.59-14.84-2.38-21.86-6.62-47.11-4.57-27.24-27.32-59.55-6.57-74.88,28.41-21,49.77,37.99,57.3,70.36,25.81-33.25,34.44-77.58,44.14-108.59,6.86-21.92,14.24-37.19,28.6-37.2,1.2,0,2.33.12,3.4.33Z"/>
      <path class="cls-1" d="M228.89,55.19c2.52,3.07,4.27,7.31,5.27,12.69-1.04-.07-2.02-.11-2.94-.11h-.03c-5.07,0-11,.91-17.07,3.76,1.03-8.06,1.58-15.46,1.63-22.16,5.8.23,10.13,2.16,13.14,5.82Z"/>
      <path class="cls-3" d="M204.82,103.64c.95-1.87,2.65-5.21,5.28-8.62-2.4,11.43-5.32,22.41-8.32,32.2-3.07,10.02-6.22,18.81-9,25.6-.95,2.33-3.1,3.81-5.45,4.01,1.17-4.04,2.31-8.03,3.42-11.96,4.63-16.38,8.63-30.53,14.07-41.23Z"/>
      <path class="cls-1" d="M202.71,44.22c.4,11.36-1,24.94-3.52,38.99-3.04,3.57-5.96,7.91-8.64,13.18-6.14,12.09-10.34,26.94-15.2,44.13-3.63,12.84-7.49,26.48-12.44,39.77-10.3-21.09-22.17-33.87-36.21-39.04-13.04-4.81-26.87-2.55-38.92,6.36-3.11,2.29-6.38,5.29-9.25,9.14l-.61-.46c21.51-27.82,31.47-63.06,39.48-91.4,8.16-28.84,14.61-51.63,27.95-51.64h.01c4.06,0,8.73,1.69,12.77,13.95,2.41,26.37-9.11,68.58-20.93,96.86-1.39,3.32.17,7.12,3.49,8.51,3.31,1.38,7.12-.18,8.5-3.49,12.68-30.33,24.23-73.26,21.98-102,6.25-13.06,12.07-12.56,16.36-12.19,4.35.37,7.51,2.41,9.96,6.4,3.1,5.08,4.71,12.51,5.15,21.41-.03.42-.02.84.03,1.27,0,.09.03.17.04.25Z"/>
      <path class="cls-3" d="M201.78,127.22l.82.25c-9.7,31.01-18.33,75.34-44.14,108.59-7.53-32.37-28.89-91.36-57.3-70.36-20.75,15.33,2,47.64,6.57,74.88,4.24,25.25,4.03,32.27,6.62,47.11,1.43,8.22,2.85,19.08,5.55,30.85-2.34-.31-4.65-.73-6.94-1.27-1.68-7.75-2.84-14.99-3.83-21.23-.41-2.58-.8-5.01-1.18-7.24-1.2-6.83-1.8-11.99-2.51-17.97-.85-7.23-1.81-15.42-4.12-29.17-1.3-7.73-4.3-16.29-7.2-24.56-7.09-20.2-15.13-43.1,3.17-56.63,9.71-7.17,18.35-6.25,23.88-4.21,20.44,7.53,33.76,43.42,39.98,64.58,12.46-19.93,19.95-42.59,26.18-64.01,2.35-.2,4.5-1.68,5.45-4.01,2.78-6.79,5.93-15.58,9-25.6Z"/>
      <path class="cls-3" d="M130.41,332.26c-.25,0-.52.02-.77.02-2.05,0-4.08-.08-6.1-.22-1.44-4.57-2.63-9.11-3.64-13.52,2.24.3,4.51.5,6.8.59,1.03,4.32,2.25,8.72,3.71,13.13Z"/>
      <path class="cls-3" d="M119.9,318.54c1.01,4.41,2.2,8.95,3.64,13.52-2.36-.16-4.7-.42-7.02-.78-1.41-4.78-2.58-9.48-3.56-14.01,2.29.54,4.6.96,6.94,1.27Z"/>
      <path class="cls-1" d="M93.33,298.56c.59,3.72,1.24,7.77,2.01,12.06-12.81-6.78-24.88-17.63-35.91-32.31-15.94-21.58-20.2-48.31-23.31-67.83-.42-2.65-.82-5.14-1.22-7.43-1.13-6.48-1.72-11.47-2.4-17.25-.86-7.38-1.85-15.74-4.21-29.81-1.48-8.83-4.67-17.92-7.75-26.71-7.44-21.19-11.24-34.58-1.37-41.87,3.28-2.42,5.96-3.14,8.09-3.14,1.43,0,2.61.32,3.56.67,14.58,5.37,28.6,39.57,35.45,69.07l3.09,13.3,8.38-10.78.18-.24.61.46c-5.44,7.31-9.46,17.67-8.25,32.08.95,11.37,4.91,22.66,8.74,33.57,2.68,7.63,5.45,15.53,6.52,21.91,2.25,13.36,3.18,21.34,4.01,28.39.7,5.95,1.36,11.58,2.63,18.84.38,2.16.75,4.52,1.15,7.02Z"/>
    </g>
  </g>
  <g id="Eyes">
    <path class="cls-2" d="M261.88,336.79c-10.91,7.22-26.34,13.38-42.12,13.38-6.08,0-12.21-.91-18.16-3.03-11.8-4.2-21.43-12.5-28.79-24.71-2.14-3.55-4.09-7.42-5.84-11.63-1.31-3.14-2.53-6.45-3.62-9.96-1.07-3.43.84-7.07,4.27-8.14,3.43-1.07,7.07.84,8.14,4.27.52,1.66,1.07,3.25,1.64,4.8.29.8.58,1.61.89,2.39,1.72,4.36,3.66,8.27,5.8,11.78,5.79,9.46,13.1,15.82,21.88,18.95,15.05,5.36,32.47.35,44.53-6.38,1.49-.83,2.91-1.69,4.23-2.56,2.99-1.98,7.03-1.16,9.01,1.83,1.98,2.99,1.16,7.03-1.83,9.01Z"/>
    <path class="cls-2" d="M208.66,255.99c3.28,1.47,4.75,5.31,3.28,8.59l-3.96,8.87-3.09,6.92c-.95,2.13-2.92,3.5-5.08,3.79-.28.04-.57.06-.86.06-.89,0-1.79-.18-2.65-.57-3.28-1.47-4.75-5.31-3.28-8.59l7.06-15.79c1.47-3.28,5.31-4.75,8.59-3.28Z"/>
    <path class="cls-2" d="M240.6,302.33c-.89,0-1.79-.18-2.65-.57-3.28-1.47-4.75-5.31-3.28-8.59l7.06-15.79c1.47-3.28,5.31-4.74,8.59-3.28,3.28,1.47,4.75,5.31,3.28,8.59l-7.06,15.79c-1.08,2.42-3.45,3.85-5.94,3.85Z"/>
  </g>
</svg>