<?xml version="1.0" encoding="UTF-8"?>
<svg id="Layer_1" data-name="Layer 1" xmlns="http://www.w3.org/2000/svg" viewBox="0 0 33.17 33.2">
  <defs>
    <style>
      .cls-1 {
        fill: #f9a34b;
      }
    </style>
  </defs>
  <path class="cls-1" d="M9.13,17.43v4.98c0,.44.18.86.49,1.17l3.32,3.32,2.35-2.35-2.83-2.83v-4.29h-3.32ZM10.79,11.62C4.83,11.62,0,16.45,0,22.41s4.83,10.79,10.79,10.79,10.79-4.83,10.79-10.79-4.83-10.79-10.79-10.79ZM3.32,22.41c0-4.13,3.34-7.47,7.47-7.47s7.47,3.34,7.47,7.47-3.34,7.47-7.47,7.47-7.47-3.34-7.47-7.47ZM23.63,3.32l-2.99,4.98h-1.44l-2.99-4.98h7.42ZM13.28,0c-.6,0-1.15.32-1.45.84-.3.52-.29,1.16.02,1.67l4.98,8.3c.3.5.84.81,1.43.81h2.51l8.04,10.34c1.36,1.75,1.38,4.18.05,5.96-.93,1.24-2.38,1.96-3.92,1.96h-3.36v3.32h3.56c2.51-.06,4.86-1.27,6.37-3.29,2.23-2.97,2.19-7.06-.09-9.99l-6.46-8.3h4.91v-3.32h-5.37l3.47-5.78c.31-.51.32-1.15.02-1.67C27.71.32,27.16,0,26.56,0h-13.28Z"/>
</svg>