<?xml version="1.0" encoding="UTF-8"?>
<svg id="Layer_1" data-name="Layer 1" xmlns="http://www.w3.org/2000/svg" viewBox="0 0 1000 450">
  <defs>
    <style>
      .cls-1 {
        fill: #fff;
      }
    </style>
  </defs>
  <path class="cls-1" d="M1000,0v450H0V0h1000ZM507.5,246h-42l-1.07-2.04,39.75-78.28c15.79-38.75,39.1-77.37,51.85-117.15,3.71-11.56,11.69-39.11-8.52-39.34-23.19-.25-63.91,48.45-83.52,61.29-2.35,4.77-17.73,14.27-14.52,19.52,4.49,3.95,8.5,1.35,12.66-1.38,20.45-13.43,40.78-38.07,61.4-53.6,2.63-1.98,21.59-15.03,23.47-13.02.24,6.94-1.72,14.27-3.48,21.01-7.71,29.39-23,62.63-35.33,90.67-16.7,37.96-34.98,75.33-53.68,112.32h-41.5c3.06-26.95,1.44-56.52-18.48-77.02-44.47-45.8-164.93-20.72-220.47-6.42-47.41,12.21-106.24,29.84-148.73,54.27-6.89,3.96-28.96,16.05-21.35,25.7,6.95,8.81,39.13,10.06,50.48,10.51,57.47,2.31,115.61-1.67,172.99-2.09,58.18-.43,116.42.03,174.6.51,1.33.81.55,1.64.53,2.52-.27,11.34-5.93,33.48-9.07,45.03-10.77,39.63-41.93,98.68-74.01,124.99-8.52,6.99-20.15,12.22-29.02,18.98l.05,2.02c4.25,2.03,7.84.73,11.79-1.18,53.67-25.94,106.11-94.08,134.5-145.5l23.34-46.15,40.84.84c-5.09,6.82-15.52,23.35-7.06,30.55,9.19,7.82,24.12-4.8,31.53-10.59,1.34-1.05,5.63-5.87,6.04-5.98,3.1-.81-.34,5.32-.47,6.62-.63,6.39,4.14,10.64,10.42,10.43,9.36-.32,15.85-11.05,23.52-15.04,1.2,1.37-10.69,12.48-1.04,15.55,8.77,2.78,16.07-11.71,21.54-17.56,5-5.35,16.54-16.33,23.03-18.97,1.31-.53,1.73.12,1.43,1.42-1.78,7.78-20.39,33.99-2.45,35.61,5.25.47,10.34-2.75,14.81-5.24,2.28-1.27,6.62-5.2,8.21-5.79,2.15-.8,1.32,2.84,2.41,4.56,6.21,9.84,28.13-4.05,34.99-8.16,8.61-5.15,16.72-11.38,25.15-16.84,2.69-3.72.26-7.77-4.32-7.39-15.29,9.87-29.55,22.5-47.74,26.82-.33-3.83,2.21-8.01,4.58-10.91,2.64-3.22,6.78-4.73,8.13-6.36,1.1-1.32.96-3.64,2.25-5.27.24-.31,5.7-4.78,6.05-4.94,6.2-2.84,21.7,6.08,17.78-6.83-.81-2.65-6.75-4.65-9.33-4.74-14.97-.49-27.11,17.74-37.46,26.56-2.39,2.04-19.2,14.36-21.01,12.48.76-11.39,13.69-20.71,8.73-32.73-5.91-3.94-10.6-2.23-16.42.55-6.3,3.02-11.02,8.46-17.32,11.17,2.79-4.26,11.47-12.7,5.96-17.45-2.86-2.47-7.01-1.45-9.65.78-7.8,6.58-14.67,18.69-23.3,25.19l-17.01,11.48c-.85-.89,7.33-14.96,8.58-16.91,3.29-5.12,22.03-23.68,6.9-23.18-6.17.2-10.62,9.13-15,13.09-3.33-1.64-3.6-4.71-7.43-6.55-5.6-2.69-12.6-1.33-18.06,1.05-2.97,1.3-8.05,6.01-10.5,6.5ZM770.01,327c-1.11-1.3,3.67-16.2,4.54-18.95,2.69-8.5,11.1-32.99,15.6-39.4,3.25-4.63,13.71-12.39,18.37-17.63,27.45-30.82,66.38-88.65,82.66-126.34,4.23-9.79,17.07-39.83-4.6-36.61-8.71,1.29-23.43,23.91-28.38,31.63-11.45,17.85-22.82,39.39-32.71,58.29-16.85,32.18-27.58,70.5-58.54,91.46-1.53,1.03-3.29,1.74-4.93,2.56-.27-2.72,1.37-4.73,2.57-6.92,3.92-7.11,14.17-16.27,16.31-21.68.98-2.49,1.9-4.74.61-7.41-8.18-8.34-13.22,3.32-19.14,7.93-1.78.31-4.75-4.95-8.07-5.71-16.22-3.72-36.1,17.35-41.46,31.11-5.2,13.35,1.49,20.35,14.86,14.86,7.91-3.25,13.48-10.85,21.31-14.18.58.62-5.65,10.37,2.04,15.45,11.79,7.79,29.21-19.54,30.95-17.45-3.52,14.78-23.91,49.37-20.79,63.28s20.54-.15,25.81-4.77c18.26-16.01,34.58-36.84,50.9-54.87l2.07-.64c1.89,13.22,14.97,15.21,25.98,11.47l16.02-9.47-28.52,58.96c-1.24,4.72-.98,8.11,4.77,6.78,4.33-1,4.74-6.51,6.96-10.05,10.28-16.42,22.29-31.66,33.78-47.22l1.51-.47c4.06,6.67,8.75,8.02,15.9,4.88,5.75-2.52,35.66-28.22,38.66-33.34.93-1.59,1.22-2.69.95-4.55-1.4-.12-2.66-.11-3.97.52-2.45,1.17-12.39,12.05-16.11,14.89-2.48,1.9-20.46,13.8-21.92,12.57,2.46-5.45,5.79-10.42,9.19-15.3s16.15-18.85,17.38-22.63c.73-2.24.89-4.45-.97-6.15-1.76-1.38-4.62-1.29-6.58-.38-2.45,1.13-15.08,16.6-17.99,20-11.85,13.86-22.62,28.7-34.53,42.47-.77.15-.6-.92-.51-1.5.42-2.52,14.97-32.11,17.02-34.99,8.36-11.72,20.79-23.79,29.81-36.19,19.16-26.37,48.25-70.92,58.86-101.14,1.98-5.64,6.22-16.53-4.09-15.15-6.18.83-14.51,14.87-18,20.06-25.13,37.36-44.74,78.38-66.04,117.96-7.34,6.99-14.81,15.08-23.24,20.76-5.46,3.68-12.58,8.03-19.31,7.2l1.18-12.84c8.86-1.7,22.31-2.77,28.82-9.68,6.44-6.84,3.65-16.1-5.58-17.4-23.37-3.3-32.67,16.27-45.89,30.92-17.06,18.91-37.54,44.46-56.5,60.5-.9.76-6.35,5.25-7.01,4.48ZM702.01,186c-1.12-6.83,5.37-20.73-4.74-22.83-10.11-2.1-10.87,13.39-11.26,20.34-.63,11.41.66,21.62,15.28,18.28,2.83-.65,9.95-8.23,12.22-10.77,1.96-2.2,15-18.56,15.31-19.77.69-2.72-.66-4.72-3.38-5.28l-3.02.97-20.41,19.08ZM777.72,194.14c-2.91.8-18.78,19.06-23.71,21.36-5.24,6.67,3.37,10.49,8.95,5.94,3.55-2.9,15-16.74,18.04-20.95s1.3-7.62-3.27-6.36Z"/>
  <path d="M507.5,246c2.45-.5,7.53-5.21,10.5-6.5,5.46-2.38,12.46-3.74,18.06-1.05,3.84,1.84,4.1,4.91,7.43,6.55,4.37-3.97,8.83-12.89,15-13.09,15.13-.5-3.61,18.06-6.9,23.18-1.25,1.95-9.43,16.02-8.58,16.91l17.01-11.48c8.64-6.5,15.5-18.61,23.3-25.19,2.64-2.22,6.79-3.24,9.65-.78,5.51,4.75-3.17,13.19-5.96,17.45,6.3-2.71,11.01-8.16,17.32-11.17,5.81-2.78,10.5-4.49,16.42-.55,4.97,12.02-7.97,21.34-8.73,32.73,1.8,1.88,18.62-10.45,21.01-12.48,10.34-8.82,22.49-27.04,37.46-26.56,2.58.08,8.53,2.08,9.33,4.74,3.92,12.9-11.59,3.98-17.78,6.83-.36.16-5.81,4.64-6.05,4.94-1.28,1.63-1.15,3.95-2.25,5.27-1.35,1.62-5.5,3.14-8.13,6.36-2.37,2.9-4.91,7.07-4.58,10.91,18.19-4.32,32.45-16.95,47.74-26.82,4.58-.37,7.01,3.68,4.32,7.39-8.42,5.46-16.53,11.69-25.15,16.84-6.86,4.1-28.77,18-34.99,8.16-1.09-1.72-.26-5.37-2.41-4.56-1.59.59-5.93,4.52-8.21,5.79-4.47,2.49-9.56,5.71-14.81,5.24-17.95-1.61.66-27.83,2.45-35.61.3-1.31-.12-1.96-1.43-1.42-6.49,2.64-18.03,13.62-23.03,18.97-5.46,5.85-12.77,20.34-21.54,17.56-9.65-3.07,2.24-14.17,1.04-15.55-7.68,3.99-14.16,14.73-23.52,15.04-6.28.21-11.05-4.04-10.42-10.43.13-1.3,3.57-7.43.47-6.62-.41.11-4.7,4.93-6.04,5.98-7.41,5.79-22.34,18.4-31.53,10.59-8.46-7.2,1.97-23.73,7.06-30.55l-40.84-.84-23.34,46.15c-28.39,51.43-80.83,119.56-134.5,145.5-3.95,1.91-7.54,3.21-11.79,1.18l-.05-2.02c8.87-6.76,20.5-12,29.02-18.98,32.08-26.31,63.24-85.36,74.01-124.99,3.14-11.54,8.8-33.69,9.07-45.03.02-.88.79-1.72-.53-2.52-58.17-.48-116.41-.94-174.6-.51-57.38.42-115.52,4.4-172.99,2.09-11.35-.46-43.53-1.7-50.48-10.51-7.61-9.65,14.46-21.74,21.35-25.7,42.49-24.43,101.32-42.06,148.73-54.27,55.53-14.3,175.99-39.38,220.47,6.42,19.91,20.51,21.54,50.08,18.48,77.02h41.5c18.7-37,36.97-74.36,53.68-112.32,12.34-28.04,27.62-61.27,35.33-90.67,1.77-6.74,3.72-14.06,3.48-21.01-1.88-2.01-20.84,11.04-23.47,13.02-20.62,15.52-40.95,40.17-61.4,53.6-4.17,2.74-8.17,5.33-12.66,1.38-3.21-5.26,12.17-14.76,14.52-19.52,19.61-12.84,60.34-61.54,83.52-61.29,20.21.22,12.23,27.77,8.52,39.34-12.75,39.78-36.07,78.4-51.85,117.15l-39.75,78.28,1.07,2.04h42ZM402.86,245.86c5.71-34.38-1.71-67.93-35.2-84.02-58.75-28.22-175.51-1.25-236.63,17.69-28.86,8.94-94.77,31.69-116.09,50.94-12.05,10.88-1.16,11.58,9.68,13.41,17.55,2.96,35.29,1.15,52.84,3.16l325.4-1.18ZM502.01,275c2.17,2.2,19.73-9.8,22.5-11.99,1.27-1,9.73-8.41,10.05-9.01,1.5-2.78-1.63-6.96-5.01-7.04-10.18-.27-28.6,17-27.55,28.05ZM451.01,252.01c-5.5-.51-37.03-2.35-38.57-.07-1.38,10.45-3.42,20.87-5.9,31.1-8.98,36.96-25.33,74.79-46.71,106.29-1.61,2.37-4.6,3.76-4.81,6.68,1.5,1.57,21.19-22.37,22.97-24.52,29.13-35.25,45.63-63.46,65.64-104.36,1.1-2.25,8.59-13.89,7.38-15.11Z"/>
  <path d="M770.01,327c.66.77,6.11-3.72,7.01-4.48,18.96-16.04,39.44-41.59,56.5-60.5,13.22-14.66,22.53-34.23,45.89-30.92,9.24,1.31,12.03,10.56,5.58,17.4-6.51,6.91-19.95,7.98-28.82,9.68l-1.18,12.84c6.74.84,13.85-3.51,19.31-7.2,8.43-5.69,15.9-13.78,23.24-20.76,21.3-39.58,40.91-80.6,66.04-117.96,3.49-5.2,11.82-19.23,18-20.06,10.31-1.38,6.07,9.51,4.09,15.15-10.61,30.22-39.7,74.78-58.86,101.14-9.01,12.4-21.45,24.47-29.81,36.19-2.05,2.87-16.6,32.46-17.02,34.99-.1.58-.26,1.65.51,1.5,11.91-13.77,22.68-28.61,34.53-42.47,2.91-3.4,15.54-18.87,17.99-20,1.96-.9,4.82-1,6.58.38,1.86,1.69,1.7,3.9.97,6.15-1.23,3.78-13.98,17.74-17.38,22.63s-6.73,9.86-9.19,15.3c1.45,1.22,19.44-10.67,21.92-12.57,3.72-2.85,13.66-13.72,16.11-14.89,1.31-.63,2.57-.64,3.97-.52.27,1.85-.01,2.95-.95,4.55-3,5.12-32.91,30.82-38.66,33.34-7.15,3.13-11.85,1.79-15.9-4.88l-1.51.47c-11.49,15.56-23.5,30.8-33.78,47.22-2.22,3.54-2.63,9.05-6.96,10.05-5.74,1.33-6.01-2.07-4.77-6.78l28.52-58.96-16.02,9.47c-11.01,3.74-24.09,1.75-25.98-11.47l-2.07.64c-16.32,18.03-32.65,38.87-50.9,54.87-5.27,4.62-22.64,18.89-25.81,4.77s17.27-48.51,20.79-63.28c-1.74-2.08-19.17,25.24-30.95,17.45-7.69-5.08-1.47-14.83-2.04-15.45-7.83,3.34-13.4,10.94-21.31,14.18-13.37,5.49-20.06-1.51-14.86-14.86,5.36-13.77,25.25-34.83,41.46-31.11,3.32.76,6.29,6.03,8.07,5.71,5.92-4.61,10.96-16.28,19.14-7.93,1.29,2.67.38,4.91-.61,7.41-2.14,5.41-12.39,14.57-16.31,21.68-1.2,2.18-2.84,4.2-2.57,6.92,1.64-.82,3.4-1.53,4.93-2.56,30.96-20.96,41.69-59.27,58.54-91.46,9.89-18.9,21.27-40.44,32.71-58.29,4.95-7.72,19.67-30.34,28.38-31.63,21.67-3.22,8.83,26.82,4.6,36.61-16.28,37.69-55.21,95.52-82.66,126.34-4.67,5.24-15.12,12.99-18.37,17.63-4.5,6.42-12.91,30.91-15.6,39.4-.87,2.75-5.65,17.65-4.54,18.95ZM806.01,236c17.74-19.27,34.04-41.25,47.8-63.69,12.59-20.53,25.9-43.75,31.18-67.31-12.58,11.49-22.7,27.24-31.78,41.71-17.82,28.42-33.35,58.8-47.2,89.29ZM976,122.01c-2.24-.45-3.18,2.52-4.38,4.11-19.06,25.24-36.82,58.15-51.79,86.22-1.09,2.04-2.63,4.37-2.82,6.67,5.44-5.01,10.1-11.94,14.4-18.08,17.32-24.69,32.51-51.29,44.58-78.91ZM723,273.99c1.42,1.32,14.78-7.96,16.94-9.55s12.11-9.55,13.15-10.9c1.65-2.13-.13-5.12-2.62-5.58-9.54-1.73-26.37,16.63-27.47,26.03Z"/>
  <path d="M702.01,186l20.41-19.08,3.02-.97c2.71.56,4.06,2.56,3.38,5.28-.31,1.21-13.35,17.57-15.31,19.77-2.27,2.55-9.39,10.13-12.22,10.77-14.62,3.34-15.91-6.87-15.28-18.28.38-6.95,1.14-22.44,11.26-20.34,10.11,2.1,3.63,16,4.74,22.83Z"/>
  <path d="M777.72,194.14c4.57-1.26,6.22,2.28,3.27,6.36s-14.49,18.04-18.04,20.95c-5.57,4.55-14.19.73-8.95-5.94,4.93-2.3,20.8-20.55,23.71-21.36Z"/>
  <path class="cls-1" d="M402.86,245.86l-325.4,1.18c-17.54-2.01-35.29-.21-52.84-3.16-10.85-1.83-21.73-2.53-9.68-13.41,21.32-19.25,87.22-42,116.09-50.94,61.12-18.94,177.88-45.91,236.63-17.69,33.49,16.09,40.91,49.64,35.2,84.02Z"/>
  <path class="cls-1" d="M451.01,252.01c1.21,1.23-6.28,12.87-7.38,15.11-20.02,40.89-36.52,69.11-65.64,104.36-1.78,2.15-21.47,26.09-22.97,24.52.22-2.92,3.2-4.31,4.81-6.68,21.38-31.5,37.74-69.33,46.71-106.29,2.48-10.23,4.52-20.65,5.9-31.1,1.54-2.28,33.07-.44,38.57.07Z"/>
  <path class="cls-1" d="M502.01,275c-1.06-11.04,17.37-28.31,27.55-28.05,3.37.09,6.5,4.26,5.01,7.04-.32.59-8.79,8.01-10.05,9.01-2.77,2.19-20.33,14.19-22.5,11.99Z"/>
  <path class="cls-1" d="M806.01,236c13.85-30.49,29.37-60.88,47.2-89.29,9.08-14.47,19.2-30.21,31.78-41.71-5.28,23.55-18.59,46.77-31.18,67.31-13.76,22.44-30.05,44.42-47.8,63.69Z"/>
  <path class="cls-1" d="M976,122.01c-12.07,27.62-27.26,54.22-44.58,78.91-4.31,6.15-8.96,13.07-14.4,18.08.18-2.31,1.73-4.63,2.82-6.67,14.97-28.06,32.74-60.98,51.79-86.22,1.2-1.58,2.14-4.56,4.38-4.11Z"/>
  <path class="cls-1" d="M723,273.99c1.1-9.4,17.93-27.77,27.47-26.03,2.49.45,4.26,3.45,2.62,5.58-1.05,1.35-11.05,9.34-13.15,10.9s-15.51,10.87-16.94,9.55Z"/>
</svg>